<?xml version="1.0" standalone="no"?>
<!DOCTYPE svg PUBLIC "-//W3C//DTD SVG 1.1//EN" "http://www.w3.org/Graphics/SVG/1.1/DTD/svg11.dtd" >
<svg xmlns="http://www.w3.org/2000/svg">
<metadata>
Created by FontForge 20120731 at Fri Jan  6 13:38:22 2017
 By admin
</metadata>
<defs>
<font id="iconfont" horiz-adv-x="1024" >
  <font-face 
    font-family="iconfont"
    font-weight="500"
    font-stretch="normal"
    units-per-em="1024"
    panose-1="2 0 6 3 0 0 0 0 0 0"
    ascent="896"
    descent="-128"
    x-height="792"
    bbox="-1 -219 1274.89 896"
    underline-thickness="0"
    underline-position="0"
    unicode-range="U+0078-EC76"
  />
<missing-glyph 
 />
    <glyph glyph-name=".notdef" 
 />
    <glyph glyph-name=".notdef" 
 />
    <glyph glyph-name=".null" horiz-adv-x="0" 
 />
    <glyph glyph-name="nonmarkingreturn" horiz-adv-x="341" 
 />
    <glyph glyph-name="x" unicode="x" horiz-adv-x="1001" 
d="M281 543q-27 -1 -53 -1h-83q-18 0 -36.5 -6t-32.5 -18.5t-23 -32t-9 -45.5v-76h912v41q0 16 -0.5 30t-0.5 18q0 13 -5 29t-17 29.5t-31.5 22.5t-49.5 9h-133v-97h-438v97zM955 310v-52q0 -23 0.5 -52t0.5 -58t-10.5 -47.5t-26 -30t-33 -16t-31.5 -4.5q-14 -1 -29.5 -0.5
t-29.5 0.5h-32l-45 128h-439l-44 -128h-29h-34q-20 0 -45 1q-25 0 -41 9.5t-25.5 23t-13.5 29.5t-4 30v167h911zM163 247q-12 0 -21 -8.5t-9 -21.5t9 -21.5t21 -8.5q13 0 22 8.5t9 21.5t-9 21.5t-22 8.5zM316 123q-8 -26 -14 -48q-5 -19 -10.5 -37t-7.5 -25t-3 -15t1 -14.5
t9.5 -10.5t21.5 -4h37h67h81h80h64h36q23 0 34 12t2 38q-5 13 -9.5 30.5t-9.5 34.5q-5 19 -11 39h-368zM336 498v228q0 11 2.5 23t10 21.5t20.5 15.5t34 6h188q31 0 51.5 -14.5t20.5 -52.5v-227h-327z" />
    <glyph glyph-name="shuaxin" unicode="&#xe600;" 
d="M985 405l-248 75l55 49q-51 62 -124 98t-156 36q-99 0 -182.5 -49t-132.5 -132.5t-49 -182t49 -182t132.5 -132.5t182 -49t182 49t132.5 132.5t49 182.5q0 1 -0.5 4.5t-0.5 4.5l109 -38q-7 -122 -71.5 -224t-170.5 -161t-229 -59q-97 0 -184.5 37.5t-150.5 100.5
t-100.5 150.5t-37.5 184t37.5 184t100.5 150.5t150.5 100.5t184.5 37.5q107 0 201.5 -45t160.5 -124l69 61z" />
    <glyph glyph-name="dianhua" unicode="&#xe625;" 
d="M861 -50q-67 124 -107 172q-36 43 -65 43q-16 0 -30 -8t-36 -26q-11 -8 -20 -13t-16 -7.5l-7 -2.5q-6 7 -32 38t-64 81.5t-51 77.5q-7 15 -8 25t6 20t20 18.5t38 20.5q25 14 38 32t11.5 32.5t-5.5 26.5q-99 150 -147 198q-20 20 -49 20q-24 0 -52.5 -16t-41 -26.5
t-21.5 -19.5q-21 -22 -39 -70t-24 -118.5t17 -147.5q70 -232 301 -439q81 -73 174 -73q44 0 88.5 18t65 33t37 30t22.5 33t4 29t-7 19zM352 644q13 -12 31.5 -36t36.5 -49t34.5 -48t26.5 -38l10 -15q3 -12 -25 -26q-30 -16 -47 -28l-147 212q40 34 65 34q9 0 15 -6z
M509 -104q-221 199 -287 418q-19 60 -15.5 118.5t15.5 97.5t27 62l146 -210q-34 -41 -5 -98q15 -30 54 -82.5t64.5 -83t36.5 -42.5q12 -13 35 -13q8 0 18 2l140 -208q-44 -21 -87 -21q-74 0 -142 60zM809 -96q-18 -17 -42 -32l-139 206q13 7 24 16q30 23 36.5 23t28.5 -26
q29 -35 102 -166q1 0 1 -2.5t-2.5 -7.5t-8.5 -11z" />
    <glyph glyph-name="caret" unicode="&#xe65a;" 
d="M243 430l285 -285l285 285l-58 58l-227 -227l-227 227z" />
    <glyph glyph-name="iconfontjinggao" unicode="&#xe688;" 
d="M512 812q-104 0 -199 -40.5t-163.5 -109t-109 -163.5t-40.5 -199t40.5 -199t109 -163.5t163.5 -109t199 -40.5t199 40.5t163.5 109t109 163.5t40.5 199t-40.5 199t-109 163.5t-163.5 109t-199 40.5zM512 -116q-113 0 -209 55.5t-151.5 151.5t-55.5 209t55.5 209
t151.5 151.5t209 55.5t209 -55.5t151.5 -151.5t55.5 -209t-55.5 -209t-151.5 -151.5t-209 -55.5zM512 170q27 0 46.5 19.5t19.5 46.5v318q0 27 -19.5 46.5t-46.5 19.5t-46.5 -19.5t-19.5 -46.5v-318q0 -27 19.5 -46.5t46.5 -19.5zM512 47zM445 47.5q0 27.5 19.5 47
t47.5 19.5t47.5 -19.5t19.5 -47t-19.5 -47.5t-47.5 -20t-47.5 20t-19.5 47.5z" />
    <glyph glyph-name="shishijiance" unicode="&#xe6e6;" 
d="M957 317q-4 114 -62 211t-155 155t-211 62v1h-33v-1q-115 -4 -212 -62t-155 -155t-62 -211h-1v-16v-1v-1v-15h1q4 -115 62 -212t155 -155t212 -62v-1h15h0.5h0.5h0.5h0.5h16v1q114 4 211 62t155 155t62 212h1v33h-1zM496 -113q-106 4 -196 57.5t-143.5 143.5t-57.5 196
h127q6 -109 83.5 -186.5t186.5 -83.5v-127zM496 46q-96 6 -164 74t-74 164h128q6 -43 36.5 -73.5t73.5 -36.5v-128zM496 206q-30 5 -51.5 26.5t-26.5 51.5h78v-78zM496 317h-78q5 29 26.5 50.5t51.5 26.5v-77zM496 426q-43 -6 -73.5 -36.5t-36.5 -72.5h-128q5 68 43 126
q17 -11 37 -11q27 0 46.5 19t19.5 47q0 15 -7 29q46 24 99 27v-128zM496 586q-64 -4 -120 -34q-18 12 -38 12q-28 0 -47 -19.5t-19 -46.5q0 -17 7 -31q-48 -68 -53 -150h-127q4 105 57.5 195t143.5 143.5t196 57.5v-127zM529 554q82 -5 145.5 -58.5t83.5 -132.5
q-35 -10 -45 -46h-75q-6 42 -36.5 72.5t-72.5 36.5v128zM529 394q29 -5 50.5 -26.5t26.5 -50.5h-77v77zM529 284h77q-5 -30 -26.5 -51.5t-50.5 -26.5v78zM529 174q42 6 72.5 36.5t36.5 73.5h75q10 -37 45 -47q-20 -79 -83.5 -132.5t-145.5 -58.5v128zM529 -113v127
q95 6 168 67.5t94 153.5q18 4 32 17t18 32h84q-4 -106 -57.5 -196t-143.5 -143.5t-195 -57.5zM841 317q-4 18 -18 31t-32 17q-21 92 -94 153.5t-168 67.5v127q105 -4 195 -57.5t143.5 -143.5t57.5 -195h-84z" />
    <glyph glyph-name="zhibiaojiankong" unicode="&#xe733;" 
d="M667 -10q0 8 -5.5 13.5t-13.5 5.5h-272q-8 0 -13.5 -5.5t-5.5 -13.5v-78h-194v-58h698v58h-194v78zM900 746h-776q-24 0 -41 -17t-17 -41v-543q0 -24 17 -41t41 -17h776q24 0 41 17t17 41v543q0 24 -17 41t-41 17zM900 164q0 -8 -6 -13.5t-14 -5.5h-736q-8 0 -14 5.5
t-6 13.5v504q0 8 6 14t14 6h736q8 0 14 -6t6 -14v-504zM686 222h97v252h-97v-252zM531 222h97v330h-97v-330zM241 222h97v97h-97v-97zM376 222h97v175h-97v-175z" />
    <glyph glyph-name="zhibiaojiance" unicode="&#xe6d5;" 
d="M637 63q0 7 -4.5 11.5t-11.5 4.5h-222q-6 0 -11 -4.5t-5 -11.5v-63h-158v-48h571v48h-159v63v0zM827 682h-634q-20 0 -34 -14t-14 -34v-444q0 -20 14 -33.5t34 -13.5h634q20 0 34 13.5t14 33.5v444q0 20 -14 34t-34 14v0zM827 206q0 -6 -4.5 -11t-10.5 -5h-603
q-7 0 -11.5 5t-4.5 11v412q0 7 4.5 11.5t11.5 4.5h603q6 0 10.5 -4.5t4.5 -11.5v-412v0zM653 254h79v206h-79v-206v0zM526 254h79v269h-79v-269v0zM288 254h79v79h-79v-79v0zM399 254h79v142h-79v-142v0zM399 254z" />
    <glyph glyph-name="yemianxingneng" unicode="&#xe61e;" 
d="M892 754h-760q-30 0 -52 -22t-22 -53v-758q0 -31 22 -53t52 -22h760q30 0 52 22t22 53v758q0 31 -22 53t-52 22zM851.5 696q15.5 0 27 -11t11.5 -26.5t-11.5 -26.5t-27 -11t-26.5 11t-11 26.5t11 26.5t26.5 11zM722.5 696q15.5 0 26.5 -11t11 -26.5t-11 -26.5t-26.5 -11
t-26.5 11t-11 26.5t11 26.5t26.5 11zM593.5 696q15.5 0 26.5 -11t11 -26.5t-11 -26.5t-27 -11t-27 11t-11 26.5t11.5 26.5t27 11zM890 564v-297h-101l-67 101q-11 17 -30.5 14t-24.5 -22l-61 -216l-199 301q-10 17 -29.5 14t-25.5 -22l-61 -216l-39 60q-9 14 -26 14h-92v269
h756zM134 -77v310h76l67 -102q11 -16 30.5 -13t24.5 22l61 216l198 -302q9 -14 26 -14q2 0 4 1q20 3 25 22l61 215l39 -59q10 -14 26 -14h118v-283h-756v1z" />
    <glyph glyph-name="ttpodicon" unicode="&#xe67a;" 
d="M947 651.5q-10 7.5 -22 3.5l-847 -262q-15 -5 -16 -20t13 -22l297 -143l-5 -143q0 -14 12.5 -20.5t24.5 1.5l134 70q8 5 9.5 14.5t-4 17t-15 9.5t-17.5 -4l-96 -44l4 112q0 15 -13 21l-260 126l760 232l-79 -602l-200 120q-9 5 -18 2.5t-14 -10.5t-2.5 -17.5t10.5 -13.5
l232 -139q6 -3 12 -3q5 0 10 3q12 5 13 18l86 674q1 12 -9 19.5zM847 536q-7 7 -16.5 7t-16.5 -7l-343 -294q-7 -7 -7 -16.5t7 -16t16.5 -6.5t16.5 6l343 295q7 6 7 15.5t-7 16.5z" />
    <glyph glyph-name="123" unicode="&#xe609;" 
d="M976 182h-929v604h929v-604zM88 223h847v522h-847v-522zM466 202h91v-136h-91v136zM156 102h712v-51h-712v51z" />
    <glyph glyph-name="refurbish" unicode="&#xe754;" 
d="M927 268v20q0 113 -55.5 209t-151 151.5t-208.5 55.5q-118 0 -218 -62q-25 -14 -25 -42q0 -20 14 -34t34 -14q15 0 27 9q77 47 168 47q87 0 160.5 -43t116.5 -116.5t43 -160.5q0 -10 -1 -20h-93l143 -205l143 205h-97zM707 24q-15 0 -27 -9q-77 -47 -168 -47
q-87 0 -160.5 43t-116.5 116.5t-43 160.5q0 10 1 20h93l-143 205l-143 -205h97v-20q0 -113 55.5 -209t151 -151.5t208.5 -55.5q118 0 218 62q25 14 25 42q0 20 -14 34t-34 14z" />
    <glyph glyph-name="ziyuanguanli" unicode="&#xe6aa;" 
d="M927 309h-831q-13 0 -22 -9.5t-9 -21.5v-235q0 -13 9 -22t22 -9h386v-79q-19 -15 -19 -39q0 -20 14.5 -35t35.5 -15t35.5 15t14.5 35q0 24 -19 39v79h383q13 0 22 9t9 22v235q0 12 -9 21.5t-22 9.5zM896 74h-769v173h769v-173zM792.5 109q20.5 0 35 14.5t14.5 35
t-14.5 35.5t-35 15t-35.5 -15t-15 -35.5t15 -35t35.5 -14.5zM792.5 171q5.5 0 9 -3.5t3.5 -9t-3.5 -9t-9 -3.5t-9 3.5t-3.5 9t3.5 9t9 3.5zM927 655h-831q-13 0 -22 -9t-9 -22v-235q0 -12 9 -21.5t22 -9.5h831q13 0 22 9.5t9 21.5v235q0 13 -9 22t-22 9zM896 420h-769v173
h769v-173zM792.5 455q20.5 0 35 14.5t14.5 35.5t-14.5 35.5t-35 14.5t-35.5 -14.5t-15 -35.5t15 -35.5t35.5 -14.5zM792.5 518q5.5 0 9 -3.5t3.5 -9t-3.5 -9.5t-9 -4t-9 4t-3.5 9.5t3.5 9t9 3.5zM921 -74h-74q-13 0 -22 -9.5t-9 -22t9 -22t22 -9.5h74q13 0 22 9.5t9 22
t-9 22t-22 9.5zM735 -74h-74q-13 0 -22 -9.5t-9 -22t9 -22t22 -9.5h74q13 0 22 9.5t9 22t-9 22t-22 9.5zM363 -74h-75q-13 0 -22 -9.5t-9 -22t9 -22t22 -9.5h75q13 0 22 9.5t9 22t-9 22t-22 9.5zM177 -74h-75q-13 0 -22 -9.5t-9 -22t9 -22t22 -9.5h75q12 0 21.5 9.5t9.5 22
t-9.5 22t-21.5 9.5z" />
    <glyph glyph-name="iconfontplane" unicode="&#xe635;" 
d="M879 664q-7 7 -16.5 9t-16.5 1l-6 -1l-680 -246q-9 -5 -14.5 -13t-6.5 -13l-1 -6q0 -10 5 -18.5t10 -10.5l5 -3l282 -135l134 -280q4 -10 12.5 -15.5t14.5 -6.5h7q10 0 18.5 5.5t11.5 11.5l2 6l247 680q2 10 0 19t-5 13zM264 390l4 1l449 162l-257 -257zM603 51l-94 195
l257 258z" />
    <glyph glyph-name="zichanguanli" unicode="&#xe618;" 
d="M511 748q-90 0 -172.5 -35.5t-142 -95t-95 -142t-35.5 -173t35.5 -172.5t95 -141.5t142 -95t172.5 -35.5t172.5 35.5t142 95t95 141.5t35.5 172.5t-35.5 173t-95 142t-142 95t-172.5 35.5zM511 -86q-106 0 -195.5 52t-141.5 141.5t-52 195.5t52 195.5t141.5 141.5
t195.5 52t195.5 -52t141.5 -141.5t52 -195.5t-52 -195.5t-141.5 -141.5t-195.5 -52zM621 305q-24 19 -85 34v160q29 -6 45 -22q21 -19 27 -58l46 9q-6 27 -13.5 43t-21.5 31q-29 29 -83 37v31h-50v-31q-42 -6 -67 -24q-47 -32 -47 -94q0 -60 43 -88q25 -17 71 -28v-176
q-35 5 -55 26q-20 23 -24 69l-47 -8q9 -60 37 -89q29 -30 89 -38v-53h50v52q50 6 76 24q50 33 50 103q0 59 -41 90zM486 349q-18 5 -31 11q-40 20 -40 62q0 38 27 59q16 13 44 18v-150zM587 148q-18 -15 -51 -20v166q41 -11 54 -21q27 -20 27 -59q0 -44 -30 -66z" />
    <glyph glyph-name="peixun" unicode="&#xe626;" 
d="M316 471q10 -30 30 -42t40 0t30 42q13 7 15 23q3 22 -9 22q-1 24 -15 39.5t-40.5 15.5t-40.5 -14.5t-16 -40.5q-12 0 -9 -22q2 -16 15 -23zM450 107v22q19 0 31.5 13t12.5 31v2l172 171q8 8 -0.5 16.5t-16.5 0.5l-155 -155v146q0 24 -15.5 42.5t-39.5 23.5l-24 5l-49 -98
l-49 98l-24 -5q-24 -5 -39.5 -23.5t-15.5 -42.5v-181q0 -18 13 -31t31 -13v-22h168zM98 259q0 -50 36 -86t87 -36h1q-10 17 -10 36v17q-26 3 -44 23t-18 46v333q0 29 21 49.5t50 20.5h583q29 0 50 -20.5t21 -49.5v-333q0 -29 -21 -49.5t-50 -20.5h-258l-26 -26
q-2 -13 -11 -26h295q51 0 87 36t36 86v333q0 50 -36 86t-87 36h-583q-51 0 -87 -36t-36 -86v-333zM270 64h-92q-33 0 -56.5 -23.5t-23.5 -56.5v-105h252v105q0 33 -23.5 56.5t-56.5 23.5zM560 64h-92q-33 0 -56.5 -23.5t-23.5 -56.5v-105h252v105q0 33 -23.5 56.5
t-56.5 23.5zM850 64h-92q-33 0 -56.5 -23.5t-23.5 -56.5v-105h252v105q0 33 -23.5 56.5t-56.5 23.5z" />
    <glyph glyph-name="shenqing" unicode="&#xe6ae;" 
d="M596 537h-388q-15 0 -26 11t-11 26.5t11 26.5t26 11h388q15 0 26 -11t11 -26.5t-11 -26.5t-26 -11zM596 241h-388q-15 0 -26 11t-11 26.5t11 26.5t26 11h388q15 0 26 -11t11 -26.5t-11 -26.5t-26 -11zM420 82h-212q-15 0 -26 11t-11 26.5t11 26t26 10.5h212
q15 0 26 -10.5t11 -26t-11 -26.5t-26 -11zM546 378h-338q-15 0 -26 11t-11 26.5t11 26.5t26 11h338q15 0 26 -11t11 -26.5t-11 -26.5t-26 -11zM738 88v-188h-611v777h611v-345l65 56v349h-741v-897h741v298l-65 -50v0zM868 416l-41 -37l88 -80l42 37l-89 80v0zM617 188
l88 -80l201 182l-89 80zM690 94l-89 80l-9 -8l-25 -103l113 23z" />
    <glyph glyph-name="shenqing1" unicode="&#xe610;" 
d="M890 -212h-763q-52 0 -89.5 37.5t-37.5 89.5v763q0 54 38 94t90 40h512v-64h-512q-26 0 -45 -21.5t-19 -48.5v-763q0 -26 18.5 -44.5t44.5 -18.5h763q27 0 48.5 19t21.5 45v512h64v-512q0 -52 -40.5 -90t-93.5 -38v0zM510 96q-12 -12 -33 -16l-278 -138
q-23 -10 -38.5 5.5t-6.5 39.5l138 279q4 20 16 33l494 494q19 19 45.5 19t44.5 -19l113 -112q18 -19 18 -45t-18 -45l-495 -495v0zM215 26q-6 -11 2.5 -19.5t19.5 -3.5l172 104l-90 91l-104 -172v0zM375 231l68 -67l1 -2l21 -21l360 360l-113 112l-359 -359q6 -6 11 -11.5
t11 -11.5v0zM937 658l-67 68q-10 9 -23 9t-22 -9l-66 -66l111 -114l67 67q10 10 10 23t-10 22v0zM937 658z" />
    <glyph glyph-name="tuopushitu" unicode="&#xe6a5;" 
d="M308 161h-182q-16 0 -27.5 11.5t-11.5 27.5v209q0 16 11.5 27.5t27.5 11.5h182q16 0 27.5 -11.5t11.5 -27.5v-209q0 -16 -11.5 -27.5t-27.5 -11.5zM132 206h170v197h-170v-197zM868 529h-140q-13 0 -22.5 9t-9.5 22v147q0 13 9.5 22t22.5 9h140q13 0 22.5 -9t9.5 -22
v-147q0 -13 -9.5 -22t-22.5 -9zM736 569h124v129h-124v-129zM868 208h-140q-13 0 -22.5 9t-9.5 22v147q0 13 9.5 22t22.5 9h140q13 0 22.5 -9t9.5 -22v-147q0 -13 -9.5 -22t-22.5 -9zM736 248h124v129h-124v-129zM868 -113h-140q-13 0 -22.5 9t-9.5 22v147q0 13 9.5 22
t22.5 9h140q13 0 22.5 -9t9.5 -22v-147q0 -13 -9.5 -22t-22.5 -9zM736 -73h124v129h-124v-129zM379 331h274v-53h-274v53zM535 18h138v-53h-138v53zM525 660h137v-53h-137v53zM483 660h52v-695h-52v695z" />
    <glyph glyph-name="weifenxiaopcjiemianzhuanhuan" unicode="&#xe639;" 
d="M570 697v115h-116v-115h-454v-115h58v-576h358l-224 -173l38 -45l276 224v0l275 -224l38 45l-217 179h364v576h58v109h-454zM909 70h-794v512h794v-512zM282 185v173h172q0 61 -45 104t-108 43t-108.5 -45.5t-45.5 -108.5q5 -68 40.5 -117t94.5 -49zM339 127
q66 0 119.5 55t53.5 118h-173v-173zM794 473h-167v-58h173v58h-6zM794 358h-167v-58h173v58h-6zM794 242h-167v-57h173v57h-6z" />
    <glyph glyph-name="zichan" unicode="&#xe613;" 
d="M512 811q-104 0 -198.5 -40.5t-163 -109t-109.5 -163.5t-41 -199t41 -198.5t109.5 -163t163 -109t198.5 -40.5t198.5 40.5t163 109t109 163t40.5 198.5t-40.5 199t-109 163.5t-163 109t-198.5 40.5v0zM512 -148q-91 0 -174 35.5t-143 95.5t-95.5 143t-35.5 173.5
t35.5 173.5t95.5 143t143 95.5t174 35.5t173.5 -35.5t142.5 -95.5t95.5 -143t35.5 -173.5t-35.5 -173.5t-95.5 -143t-142.5 -95.5t-173.5 -35.5v0zM710 174q14 0 24.5 -8t10.5 -20q0 -11 -10.5 -19t-24.5 -8h-170v-95q0 -11 -10 -19t-25 -8t-25 8t-10 19v95h-170
q-14 0 -23.5 8.5t-9.5 19.5t9.5 19t23.5 8h170v82h-170q-14 0 -23.5 8t-9.5 20q0 11 9.5 18.5t23.5 7.5h144l-148 218q-8 9 -3 19.5t19 16.5q12 4 25.5 1t19.5 -12l150 -219l148 220q7 9 20.5 12.5t26.5 -2.5q13 -5 17 -15.5t-2 -19.5v1l-149 -220h142q14 0 24.5 -8
t10.5 -19.5t-10.5 -19t-24.5 -7.5h-170v-82h170v0zM710 174z" />
    <glyph glyph-name="guanli2" unicode="&#xe78a;" 
d="M859 1q0 -32 -22.5 -54.5t-53.5 -22.5h-598q-32 0 -54.5 22.5t-22.5 54.5v598q0 32 22.5 54.5t54.5 22.5h598q30 0 52 -20.5t24 -50.5l42 41l16 17q-18 38 -54 61.5t-80 23.5h-598q-62 0 -105.5 -43.5t-43.5 -105.5v-598q0 -61 43.5 -104.5t105.5 -43.5h598
q61 0 104.5 43.5t43.5 104.5v430l-72 -72v-358zM241 507h72v-72h-72v72zM726 472v35h-363v-72h327zM241 336h72v-72h-72v72zM590 336h-227v-72h156zM241 165h72v-72h-72v72zM363 165v-72h56v51v21h-56zM665 165l-71 -72h132v72h-61zM937 610l-6 -6l-72 -71l-196 -197
l-72 -72l-99 -99l-21 -21v-51h50l72 72l99 99l34 34l133 133l72 72l56 56z" />
    <glyph glyph-name="iconfontziyuanguanli" unicode="&#xe631;" 
d="M245 576q0 18 12.5 30.5t30.5 12.5h448q18 0 30.5 -12.5t12.5 -30.5l32 -213h41l-31 213q0 35 -25 60t-60 25h-448q-35 0 -60 -25t-25 -60l-31 -213h41zM288 416q0 -13 9.5 -22.5t22.5 -9.5h384q13 0 22.5 9.5t9.5 22.5q0 5 -1.5 8t-5 3.5t-6.5 0.5t-9 -0.5t-10 -0.5
h-384q-4 0 -10 0.5t-9 0.5t-6.5 -0.5t-5 -3.5t-1.5 -8zM683 491q13 0 22.5 9t9.5 23q0 5 -1.5 7.5t-5 3.5t-6.5 1t-9 -1t-10 -1h-342q-4 0 -10 1t-9 1t-6.5 -1t-5 -3.5t-1.5 -7.5q0 -14 9.5 -23t22.5 -9h342zM843 320h-662q-35 0 -60 -25t-25 -60l21 -235q0 -35 25 -60
t61 -25h618q36 0 61 25t25 60l21 235q0 35 -25 60t-60 25zM864 0q0 -18 -12.5 -30.5t-30.5 -12.5h-618q-18 0 -30.5 12.5t-12.5 30.5l-21 235q0 17 12.5 29.5t29.5 12.5h662q17 0 29.5 -12.5t12.5 -29.5zM629 74.5q0 13.5 -9 23t-23 9.5h-170q-14 0 -23 -9.5t-9 -23t9 -22.5
t23 -9v0v0h170q14 0 23 9t9 22.5z" />
    <glyph glyph-name="wode" unicode="&#xe66e;" 
d="M970 -182q-18 129 -102 228t-207 138q82 39 132 116.5t50 171.5q0 131 -93.5 224.5t-225 93.5t-225 -93.5t-93.5 -224.5q0 -94 50.5 -171.5t132.5 -116.5q-122 -39 -206.5 -137.5t-102.5 -226.5q-2 -5 -2 -11q0 -12 8 -20t20 -8t20.5 8t8.5 20v1q20 145 131 242.5
t259 97.5t258.5 -97t131.5 -241v-3q0 -12 8.5 -20t20 -8t20 8t8.5 20q0 5 -2 9v0zM525 209q-109 0 -186 77t-77 186t77 186t186 77t186 -77t77 -186t-77 -186t-186 -77v0zM525 209z" />
    <glyph glyph-name="dianhua1" unicode="&#xec76;" 
d="M929 -52l-128 185q-16 26 -45 32.5t-52 -10.5l-84 -53h-9l-4 -4q-4 0 -9.5 1.5t-18 10.5t-28 23.5t-40.5 44.5t-54 69q-98 147 -84 203q4 0 6.5 1t2.5 3v1l88 57q24 14 31 42t-9 55l-123 176v5q-22 17 -57 17q-54 0 -111 -44l-8 -4q-34 -51 -57 -116t-29.5 -99.5
t-6.5 -44.5v-5v-4q35 -165 154 -344l44 -62q119 -173 256 -264l5 -5l10 -2.5l26 -6.5t36.5 -8t48.5 -6.5t55 -2.5q35 0 97 9l9 4q31 20 51 42t27.5 40t10 32.5t0.5 23.5zM819 -154q-53 -8 -84 -8q-93 0 -159 22q-42 29 -79.5 63t-71.5 73.5t-53.5 64.5t-50.5 67l-14 18
q-35 55 -58 93t-56 112t-49 143q24 144 84 234q69 51 110 31l119 -177q14 -20 -9 -35l-83 -53q-1 0 -5 -3.5t-7 -6.5t-7.5 -8.5t-7.5 -12.5q-27 -74 88 -246q60 -87 104.5 -127.5t80.5 -40.5q27 0 36 18l79 53q20 13 35 -9l124 -177q0 -48 -66 -88z" />
    <glyph glyph-name="yingjianguanli" unicode="&#xe65e;" 
d="M927 -66h-830q-13 0 -22.5 9.5t-9.5 22.5v192q0 14 9.5 23t22.5 9h830q13 0 22.5 -9t9.5 -23v-192q0 -13 -9 -22.5t-23 -9.5v0zM193 137h-75v-75h75v75zM629 137h-74v-150h74v150zM768 137h-75v-150h75v150zM906 137h-75v-150h75v150zM682 467q64 68 64 161
q0 52 -21.5 98t-58.5 79l32 29q43 -39 67 -92.5t24 -113.5q0 -109 -75 -189zM626 516l-32 28q35 35 35 84q0 31 -14.5 57t-38.5 42l33 29q29 -23 46 -56t17 -72q0 -65 -46 -112v0zM491 639q0 13 9 22.5t22.5 9.5t23 -9.5t9.5 -22.5v-406h-64v406zM395 628q0 -57 46 -93
l-33 -28q-56 48 -56 121q0 39 17 72t47 56l32 -29q-24 -16 -38.5 -42t-14.5 -57v0zM278 628q0 -101 74 -171l-33 -28q-84 82 -84 199q0 60 24.5 113.5t66.5 92.5l33 -28q-38 -33 -59.5 -79t-21.5 -99v0z" />
    <glyph glyph-name="fabu" unicode="&#xe63f;" 
d="M671 666q0 60 -43 103t-103.5 43t-103.5 -43t-43 -103h-73v-73h439v73h-73zM452 666q0 30 21 51.5t51.5 21.5t52 -21.5t21.5 -51.5h-146zM858 666h-59v-73h30q16 0 27.5 -12.5t11.5 -29.5v-648q0 -17 -11.5 -29.5t-27.5 -12.5h-608q-17 0 -28.5 12.5t-11.5 29.5v648
q0 17 11.5 29.5t28.5 12.5h29v73h-59q-32 0 -55 -24.5t-23 -59.5v-710q0 -35 23 -59.5t55 -24.5h667q33 0 56 24.5t23 59.5v710q0 35 -23 59.5t-56 24.5v0zM305 7h439q15 0 26 11t11 26t-11 26t-26 11h-439q-15 0 -25.5 -11t-10.5 -26t10.5 -26t25.5 -11v0zM305 190h439
q15 0 26 11t11 26t-11 25.5t-26 10.5h-439q-15 0 -25.5 -10.5t-10.5 -25.5t10.5 -26t25.5 -11v0zM305 373h439q15 0 26 11t11 26t-11 25.5t-26 10.5h-439q-15 0 -25.5 -10.5t-10.5 -25.5t10.5 -26t25.5 -11v0zM305 373z" />
    <glyph glyph-name="xiala" unicode="&#xe629;" 
d="M517 213l149 149q15 15 7 35t-29 20h-298q-21 0 -29 -20q-3 -6 -3 -12q0 -14 9 -23l149 -149q10 -9 23 -9t22 9z" />
    <glyph glyph-name="faxian" unicode="&#xe605;" horiz-adv-x="1025" 
d="M819 709q-56 -30 -67 -35q-7 -3 -16 2q-188 107 -377 33q-247 -97 -281 -364q-17 -134 57 -263q9 -16 0 -30q-3 -5 -31 -58q-49 59 -76 139.5t-28.5 168.5t34 181.5t106.5 168.5t162 115.5t182 44t179 -22.5t156 -80zM920 607q52 -64 79 -149.5t25 -177t-42.5 -185
t-118.5 -167.5q-74 -69 -165.5 -104.5t-179 -35t-169.5 27.5t-144 77q56 29 68 35q6 3 15 -3q122 -72 262 -60.5t249 107.5q79 69 117.5 162t32 192t-56.5 187q-13 23 0 42q2 4 28 52zM502 151q-64 2 -105.5 53t-35.5 109q6 60 54 102.5t119 34.5q55 -7 94 -55.5t34 -105.5
q-5 -62 -52.5 -103t-107.5 -35zM956 742q-153 -293 -231 -440q-22 190 -213 211q66 35 142.5 75t157 82.5t141.5 74.5zM299 300q22 -191 213 -212q-316 -166 -441 -232l-1.5 1.5l-1.5 1.5q218 417 231 441z" />
    <glyph glyph-name="iconfaxian" unicode="&#xe60f;" 
d="M514 757q-95 0 -181 -37t-148.5 -99t-99 -148t-36.5 -180.5t37 -180.5t99 -147.5t147.5 -98.5t179.5 -37q95 0 181.5 37t149 98.5t99.5 147.5t37 180.5t-37 180.5t-99 148t-148.5 99t-180.5 37zM512 -107q-108 0 -200 53.5t-145.5 145.5t-53.5 200q0 109 53.5 201.5
t146 146t201.5 53.5t201.5 -54t146 -146.5t53.5 -200.5t-54 -200t-147 -145.5t-202 -53.5zM774 555q-14 17 -36 6l-322 -151q-11 -4 -15 -15l-156 -327q-11 -22 7 -36q8 -9 23 -9q4 0 13 5l320 153q6 2 15 15l158 325q5 6 3 16t-10 18zM514 228q-27 0 -45.5 18.5t-18.5 45.5
t18.5 45.5t45.5 18.5q26 0 45 -18.5t19 -45.5t-19 -45.5t-45 -18.5z" />
    <glyph glyph-name="gaojing01" unicode="&#xe636;" 
d="M963 -184q-2 -6 -7.5 -9.5t-12 -2t-10 7.5t-2.5 12l20 79v164q0 10 -8 13q-3 1 -6.5 1t-6.5 -1q-7 -3 -7 -12v0v-1v-18q0 -6 -5 -11t-11.5 -5t-11.5 5t-5 11v43q0 9 -7 12h-1q-2 2 -6 2t-7 -2q-7 -3 -7 -12v0v-43q0 -6 -5 -11t-11.5 -5t-11.5 5t-5 11v49q0 10 -7 13
q-3 1 -6.5 1t-6.5 -1q-8 -3 -8 -12v-1v0v-49q0 -6 -4.5 -11t-11.5 -5t-11.5 5t-4.5 11v157q0 10 -8 13q-3 1 -6.5 1t-6.5 -1q-8 -3 -8 -13v-259q0 -7 -4.5 -11.5t-11.5 -4.5t-11.5 4.5t-4.5 11.5v71v0v0q0 9 -8 12q-3 1 -6.5 1t-6.5 -1q-8 -3 -8 -12v-81q0 -24 2.5 -31.5
t15.5 -23.5l5 -6l35 -46q4 -5 3 -11.5t-6 -10.5q-13 -10 -22 2l-36 46l-4 6q-18 23 -21.5 33t-3.5 42v81q0 31 28 42q9 4 19 4q7 0 14 -2v144q0 31 28 43q9 3 18.5 3t18.5 -3q28 -12 28 -43v-64q6 2 14 2q10 0 19 -3q9 -4 15 -11q4 3 8 4q9 4 19 4t18 -4q18 -7 25 -24
q9 4 18 4t18 -4q28 -11 28 -43v-166v-4l-20 -81v0zM680 182v0q2 -6 -1 -12t-9.5 -8t-12 1t-7.5 9q-6 17 -6 34q0 45 32.5 77.5t78 32.5t78 -32.5t32.5 -77.5q0 -17 -6 -34q-2 -6 -8 -9t-12 -1t-9.5 8t-1.5 12q4 11 4 24q0 32 -23 55t-55 23t-54.5 -23t-22.5 -55q0 -12 3 -24
v0zM396 592q-11 -6 -20 -11q-7 -4 -8.5 -11.5t2.5 -13.5q5 -9 15 -9q5 0 10 3q8 4 16 9q7 3 9.5 10t-0.5 14t-10.5 9.5t-13.5 -0.5zM505 7h-327q48 62 48 147v277q0 59 36 113.5t95.5 88t124 33.5t124 -33.5t96 -88t36.5 -113.5v-42q36 9 73 9v33q0 100 -71.5 184
t-175.5 112v3q0 34 -24 58t-58 24t-58.5 -24t-24.5 -58v-3q-104 -28 -175.5 -112t-71.5 -184v-277q0 -37 -11 -66t-28.5 -45t-29 -24t-21.5 -12q-21 -11 -21 -34q0 -16 11 -27.5t27 -11.5h453q-18 35 -27 73zM481.5 757q19.5 0 25.5 -19q-17 1 -25 1q-10 0 -26 -1
q6 19 25.5 19zM321 530q-41 -53 -41 -120v-183q0 -8 5.5 -13t13 -5t13 5t5.5 13v183q0 55 33 98q4 7 3 14.5t-7 12t-13.5 3t-11.5 -7.5zM543 -85q-6 -2 -7 -8q-4 -19 -19 -32.5t-35.5 -13.5t-35.5 13.5t-18 32.5q-2 8 -11 9h-52q-9 -1 -10 -10q3 -49 39.5 -83.5t87.5 -34.5
q35 0 64 17.5t46 47.5q-28 27 -49 62z" />
    <glyph glyph-name="gaojing" unicode="&#xe68e;" 
d="M512 611l397 -688h-794zM512 743l-512 -886h1024l-512 886v0zM462 444h100v-336h-100v336zM462 64h100v-99h-100v99z" />
    <glyph glyph-name="baobiao" unicode="&#xe60e;" 
d="M821 831h-618q-28 0 -48.5 -20t-20.5 -49v-755q0 -28 20.5 -48.5t48.5 -20.5h618q28 0 48.5 20.5t20.5 48.5v755q0 29 -20.5 49t-48.5 20zM821 7h-618v755h618v-755zM684 453h68v-68h-68v68zM272 453h343v-68h-343v68zM272 316h206v-69h-206v69zM272 179h274v-69h-274v69
zM684 316h68v-69h-68v69zM684 179h68v-69h-68v69zM306 556h411q15 0 25 10.5t10 24.5v34q0 14 -10 24t-25 10h-411q-14 0 -24 -10t-10 -24v-34q0 -14 10 -24.5t24 -10.5z" />
    <glyph glyph-name="dashujujiankongpingtai21" unicode="&#xe673;" 
d="M939 586h-14q-7 0 -12.5 5.5t-5.5 12.5v36q0 18 -17 21q-237 45 -360 -41q-13 -9 -18 -9t-18 9q-123 86 -360 41q-17 -3 -17 -21v-36q0 -7 -5.5 -12.5t-12.5 -5.5h-14q-9 0 -15 -6t-6 -15v-428q0 -9 6.5 -15t14.5 -6h362q5 0 8.5 -3.5t3.5 -8.5q0 -13 12 -13h82
q5 0 8.5 3.5t3.5 8.5q0 13 12 13h361q9 0 15.5 6t6.5 15v428q0 9 -6 15t-15 6v0zM482 157q-116 73 -315 40q-9 -1 -16 4.5t-7 15.5v403q0 18 18 21q208 35 320 -50q16 -12 16 -32v-393q0 -6 -5.5 -9t-10.5 0v0zM880 217q0 -10 -7 -15.5t-16 -4.5q-199 33 -315 -40
q-5 -3 -10.5 0t-5.5 9v393q0 20 16 33q112 84 320 49q8 -1 13 -7t5 -14v-403v0zM880 217z" />
    <glyph glyph-name="dashujujiankongpingtai22" unicode="&#xe674;" 
d="M203 736q-2 0 -6 -0.5t-14.5 -3.5t-18.5 -9t-14.5 -19t-6.5 -30v-675q0 -2 0.5 -6t3 -14.5t8.5 -18.5t18.5 -15.5t30.5 -8.5h614h6.5t16 3t19.5 8.5t15 18.5t6 32v676v7t-3 14t-8.5 18t-19 15t-31.5 8h-61v-62h41h5.5t9 -4t5.5 -12v-644v-4.5t-3.5 -7.5t-10.5 -5h-585
q-2 0 -4.5 0.5t-6.5 4.5t-4 11v642v6t4 8t12 5h46v62h-64v0zM203 736zM389 320q0 -6 -5 -10.5t-11 -4.5h-30q-6 0 -11 4.5t-5 10.5v276q0 7 5 11.5t11 4.5h30q6 0 11 -4.5t5 -11.5v-276v0zM389 320zM542 320q0 -6 -4.5 -10.5t-11.5 -4.5h-29q-7 0 -11.5 4.5t-4.5 10.5v276
q0 7 4.5 11.5t11.5 4.5h29q7 0 11.5 -4.5t4.5 -11.5v-276v0zM542 320zM696 320q0 -6 -4.5 -10.5t-11.5 -4.5h-29q-7 0 -11.5 4.5t-4.5 10.5v276q0 7 4.5 11.5t11.5 4.5h29q7 0 11.5 -4.5t4.5 -11.5v-276v0zM696 320zM696 198q0 -6 -4.5 -11t-11.5 -5h-337q-6 0 -11 5t-5 11
v30q0 6 5 10.5t11 4.5h337q7 0 11.5 -4.5t4.5 -10.5v-30v0zM696 198zM696 75q0 -7 -4.5 -11.5t-11.5 -4.5h-337q-6 0 -11 4.5t-5 11.5v29q0 7 5 11.5t11 4.5h337q7 0 11.5 -4.5t4.5 -11.5v-29v0zM696 75zM626 736l-72 79q-10 8 -20.5 12.5t-16.5 4.5h-6q-12 1 -22.5 -3.5
t-16.5 -9.5l-5 -4l-70 -79h-70v-62h369v62h-70v0zM459 736l43 50q4 6 9 6t7 -3l3 -2l42 -51h-104v0zM459 736z" />
    <glyph glyph-name="icon0206" unicode="&#xe615;" 
d="M670 404q0 71 -50.5 122t-122 51t-122 -51t-50.5 -122t50.5 -122t122 -51t122 51t50.5 122v0zM376 404q0 50 35.5 85.5t86 35.5t85.5 -35.5t35 -85.5t-35 -85.5t-85.5 -35.5t-86 35.5t-35.5 85.5v0zM376 404zM720 29h-61l-47 116q97 36 157.5 121t60.5 191
q0 91 -44.5 167.5t-121 121t-167 44.5t-167 -44.5t-121 -121t-44.5 -167.5q0 -104 59 -188.5t153 -121.5v0v0l-47 -118h-45q-11 0 -18.5 -7.5t-7.5 -18t7.5 -18t18.5 -7.5h62v0v0h294v0v0h79q11 0 18.5 7.5t7.5 18t-7.5 18t-18.5 7.5v0zM216 457q0 117 82.5 199.5t199 82.5
t199 -82.5t82.5 -199t-82.5 -199t-199 -82.5t-199 82.5t-82.5 198.5v0zM425 128v3q0 1 1 2q36 -8 72 -8q32 0 65 6v-1.5t1 -2.5l39 -98h-218l40 99v0zM425 128zM461 643q0 -17 11.5 -28.5t28 -11.5t28.5 11.5t12 28t-12 28.5t-28.5 12t-28 -12t-11.5 -28v0zM461 643z" />
    <glyph glyph-name="icon9" unicode="&#xe660;" 
d="M595 -69h-428q-49 0 -84 35t-35 85v524q0 49 35 84t84 35h428q43 0 76 -27t41 -68q25 7 47 9q-12 58 -58 95.5t-106 37.5h-252q8 41 41 68.5t75 27.5h232q49 0 84 -35t35 -85v-107q23 -1 47 -6v113q0 69 -48.5 118t-117.5 49h-232q-62 0 -108.5 -41t-55.5 -102h-128
q-69 0 -118 -48.5t-49 -117.5v-524q0 -69 49 -118t118 -49h428q54 0 96.5 31t60.5 80q-23 3 -46 10q-14 -33 -44 -53.5t-67 -20.5v0zM143 569h317v-36h-317v36zM143 410h244v-36h-244v36zM143 251h244v-36h-244v36zM143 92h317v-36h-317v36zM973 314l43 16q11 4 7 15l-36 98
q-4 11 -15 7l-44 -16q-11 -4 -16 2q-3 4 -5.5 11.5t-0.5 11.5l19 42q5 11 -5 15l-96 44q-10 5 -15 -5l-20 -43q-5 -10 -13 -10q-4 1 -11.5 4.5t-8.5 7.5l-16 43q-4 11 -15 7l-99 -36q-11 -4 -6 -15l16 -44q4 -11 -3 -16q-3 -3 -10.5 -5.5t-11.5 -0.5l-42 19q-11 5 -16 -6
l-43 -95q-5 -10 5 -15l42 -20q11 -5 10 -13q0 -4 -3.5 -11.5t-7.5 -8.5l-44 -16q-10 -4 -6 -15l36 -99q4 -11 15 -7l43 17q11 4 17 -3q3 -3 5.5 -10.5t0.5 -11.5l-19 -42q-5 -11 5 -16l96 -44q10 -4 15 6l20 42q4 11 12 10q5 0 12 -3.5t9 -7.5l16 -43q4 -11 15 -7l98 36
q11 4 7 15l-16 43q-4 11 2 17q4 3 11.5 5.5t11.5 0.5l42 -19q11 -5 15 5l44 96q5 10 -5 15l-42 20q-4 1 -7 8.5t-3 12.5q0 8 11 12zM804.5 196q-45.5 -17 -89 3.5t-60.5 65.5t3.5 89t65.5 60.5t89 -3.5t61 -65.5t-3.5 -89t-66 -60.5z" />
    <glyph glyph-name="video" unicode="&#xe627;" 
d="M960 704h-28q-27 0 -45 -18l-87 -86v40q0 40 -28 68t-68 28h-608q-40 0 -68 -28t-28 -68v-223v-289q0 -40 28 -68t68 -28h608q40 0 68 28t28 68v39l87 -85q18 -19 45 -19h28q27 0 45.5 19t18.5 45v513q0 27 -18.5 45.5t-45.5 18.5zM96 96q-13 0 -22.5 9.5t-9.5 22.5v512
q0 13 9.5 22.5t22.5 9.5h608q13 0 22.5 -9.5t9.5 -22.5v-512q0 -13 -9.5 -22.5t-22.5 -9.5h-608zM960 127h-28h-4l-128 128v1l-32 32v192l160 160h4h28v-513z" />
    <glyph glyph-name="yixiangdengji" unicode="&#xe666;" 
d="M896 511v0v193q0 53 -37.5 90.5t-91.5 37.5h-510q-54 0 -91.5 -37.5t-37.5 -90.5v-640q0 -53 37.5 -90.5t90.5 -37.5h126v64h-126q-26 0 -45 19t-19 45v640q0 26 19 45t46 19h510q27 0 46 -18.5t19 -45.5v-193h64zM793 404v0h91l-366 -366l-46 45l64 -8l-7 -59
q-1 -9 1.5 -11.5t10.5 -1.5l60 8l7 -64l-45 45l366 366v-90zM839 449l135 -136l-366 -366l-59 -7q-39 -5 -63.5 19.5t-20.5 64.5l7 59l367 366v0zM352 576h320q13 0 22.5 9.5t9.5 22.5t-9.5 22.5t-22.5 9.5h-320q-13 0 -22.5 -9.5t-9.5 -22.5t9.5 -22.5t22.5 -9.5v0z
M352 384h256q13 0 22.5 9.5t9.5 22.5t-9.5 22.5t-22.5 9.5h-256q-13 0 -22.5 -9.5t-9.5 -22.5t9.5 -22.5t22.5 -9.5v0zM352 192h64q13 0 22.5 9.5t9.5 22.5t-9.5 22.5t-22.5 9.5h-64q-13 0 -22.5 -9.5t-9.5 -22.5t9.5 -22.5t22.5 -9.5v0z" />
    <glyph glyph-name="zjzykh" unicode="&#xe624;" 
d="M218 576h416v-56h-416v56zM218 350h416v-56h-416v56zM135 -72q-33 0 -56 23t-23 56v712q0 33 23 56t56 23h79q8 -19 25.5 -31t38.5 -12h296q21 0 38.5 12t25.5 31h79q33 0 56 -23t23 -56v-392l56 -26v418q0 56 -39.5 95.5t-95.5 39.5h-79q-8 19 -25.5 30.5t-38.5 11.5
h-296q-21 0 -38.5 -11.5t-25.5 -30.5h-79q-56 0 -95.5 -39.5t-39.5 -95.5v-712q0 -56 39.5 -95.5t95.5 -39.5h360l-43 56h-317zM610 21l-129 134l-60 -52l203 -210l400 529z" />
    <glyph glyph-name="shezhi" unicode="&#xe608;" 
d="M657 -56v0q-27 0 -44 18q-16 18 -44 37.5t-52 19.5t-52 -19t-44 -37t-43 -18q-12 0 -22 5h-1l-112 63l-1 1q-16 11 -21 29.5t2 35.5q11 21 11 46q0 49 -35 84t-84 35h-5q-14 0 -24.5 12t-14.5 31q-10 53 -10 90q0 38 10 90q4 20 14.5 31.5t25.5 11.5h4q49 0 84 35t35 84
q0 27 -11 46q-7 17 -2 36t21 30h1l118 66h2q10 4 21 4q27 0 43 -17q17 -17 44 -35t51 -18q23 0 50 17.5t43 34.5q17 17 43 17q12 0 22 -4l1 -1l115 -64h1q15 -11 20.5 -30t-2.5 -36q-10 -21 -10 -46q0 -49 35 -84t84 -35h4q14 0 25 -11.5t15 -31.5q9 -52 9 -90t-9 -90
q-4 -20 -15 -31.5t-25 -11.5h-4q-49 0 -84 -35t-35 -84q0 -21 10 -46q8 -17 2.5 -35.5t-20.5 -29.5l-1 -1l-117 -64l-1 -1q-10 -4 -21 -4v0v0v0zM653 -1q1 -1 4 -1v0l108 60q-14 34 -14 67q0 69 47.5 119.5t116.5 53.5q8 47 8 79t-8 79q-69 4 -116.5 54t-47.5 119
q0 33 15 67l-107 60h-1q-2 0 -4 -1q-16 -17 -40 -33q-49 -36 -92 -36q-44 0 -94 36q-23 17 -40 34q-1 1 -4 1v0l-111 -61q15 -34 15 -67q0 -69 -48 -119t-116 -54q-9 -46 -9 -79t9 -79q68 -3 116 -53.5t48 -119.5q0 -33 -15 -67l105 -59v0q2 0 4 1q17 19 40 36q51 37 95 37
q45 0 96 -38q23 -18 40 -36v0v0v0zM517 219q-65 0 -111.5 46.5t-46.5 112.5t46.5 112.5t112 46.5t112 -46.5t46.5 -112.5t-46.5 -112.5t-112.5 -46.5v0v0zM517 483q-43 0 -73.5 -31t-30.5 -74.5t30.5 -74t74 -30.5t74 30.5t30.5 74t-30.5 74.5t-74.5 31v0v0zM517 483z" />
    <glyph glyph-name="gongdan" unicode="&#xe67d;" 
d="M849 752h-92v61h-83q-20 28 -55 45t-77 17t-77 -17t-55 -45h-83v-61h-92q-51 0 -86.5 -36t-35.5 -87v-613q0 -51 35.5 -87t86.5 -36h614q50 0 86 36t36 87v613q0 51 -36 87t-86 36v0zM379 755h72q0 28 26.5 47.5t64 19.5t64.5 -19.5t27 -47.5h72v-133h-326v133v0zM920 7
q0 -26 -18.5 -44.5t-44.5 -18.5h-630q-26 0 -44.5 18.5t-18.5 44.5v631q0 26 18.5 44.5t44.5 18.5h97v-126h433l1 126h99q26 0 44.5 -18.5t18.5 -44.5v-631v0zM747 437h-423q-11 0 -18.5 -7.5t-7.5 -18t7.5 -17.5t18.5 -7h423q10 0 17.5 7t7.5 17.5t-7.5 18t-17.5 7.5v0z
M747 288h-423q-11 0 -18.5 -7.5t-7.5 -18t7.5 -18t18.5 -7.5h423q10 0 17.5 7.5t7.5 18t-7.5 18t-17.5 7.5v0zM747 137h-423q-11 0 -18.5 -7t-7.5 -17.5t7.5 -18t18.5 -7.5h423q10 0 17.5 7.5t7.5 18t-7.5 17.5t-17.5 7v0z" />
    <glyph glyph-name="wangluo1" unicode="&#xe6a6;" 
d="M571 823v-127h-126v127h126zM635 886h-253v-253h253v253zM950 65v-126h-126v126h126zM571 65v-126h-126v126h126zM193 65v-126h-126v126h126zM540 633h-63v-189h-379v-316h-95v-252h253v252h-95v253h316v-253h-95v-252h253v252h-95v253h315v-253h-94v-252h252v252h-94
v316h-379v189z" />
    <glyph glyph-name="jiancedanyuan" unicode="&#xe6bb;" 
d="M170.5 192q14.5 -10 31.5 -6.5t27 18.5l51 76l90 -120q12 -17 33 -17h4q23 2 34 23l95 191l85 -113q14 -19 37 -17t34 23l125 251q8 16 2.5 32.5t-21 24t-32 2t-24.5 -20.5l-95 -191l-85 113q-14 19 -37 17t-34 -23l-95 -191l-85 114q-12 16 -35 16q-21 0 -33 -18
l-84 -126q-10 -14 -6.5 -31t18 -27zM987 834h-952q-14 0 -24.5 -10t-10.5 -25v-821q0 -15 10.5 -25t24.5 -10h952q14 0 24 10t10 25v821q0 15 -10 25t-24 10zM194 740q3 14 13 24t24 12q24 5 41.5 -12.5t12.5 -41.5q-3 -14 -13 -24t-23 -12q-25 -5 -42 12.5t-13 41.5z
M72 740q2 14 12 24t24 12q24 5 41.5 -12.5t12.5 -41.5q-3 -14 -13 -24t-23 -12q-25 -5 -42 12.5t-12 41.5zM953 22h-884v610h884v-610z" />
    <glyph glyph-name="16pxruanjian" unicode="&#xe65b;" 
d="M832 832h-768v-896h896v768zM704 768v-256h-384v256h384zM256 0v294l26 26h460l26 -26v-294h-512zM896 0h-64v320l-64 64h-512l-64 -64v-320h-64v768h128v-320h512v320h38l90 -90v-678zM576 704h64v-128h-64v128zM320 256h384v-64h-384v64zM320 128h384v-64h-384v64z" />
    <glyph glyph-name="jushoucang" unicode="&#xe643;" 
d="M909 682q-10 12 -29 32q-159 163 -342 16q-10 -7 -29 -26q-5 5 -14.5 13t-14.5 13q-187 144 -342 -16q-20 -20 -26 -32q-66 -96 -67.5 -194t51 -188t154.5 -178q77 -67 137 -103q32 -19 45 -29q14 -9 19 -9l13 -7q2 -1 7.5 -3t8.5 -3q18 -5 44.5 -2t45.5 15q6 0 16 9
q23 12 44 29q61 36 138 103q103 90 156.5 180.5t51.5 188t-67 191.5zM736 163q-73 -62 -131 -99q-39 -23 -45 -26q-13 -6 -16 -9q-6 -3 -26 -10h-9h-16h-3v0v0q-4 0 -4 3q-1 0 -4.5 2t-4.5 2q-3 3 -16 9.5t-45 25.5q-78 50 -131 99q-288 257 -131 490q3 4 11 12t11 13
q124 133 275 13q10 -6 23 -19v0l28 -32v0l2 -1l1 -2h1v-1l1 -1l2 -2v0v0v0l1 1l1 2l1 1l1 1h1l1 1l1 1v1l1 1l1 1l1 1l1 1l1 1l1 1l1 1l2 1q25 26 41 39q152 120 276 -13q3 -5 11 -13t11 -13q58 -76 59.5 -159t-46.5 -162.5t-141 -161.5z" />
    <glyph glyph-name="baobiao1" unicode="&#xe68b;" 
d="M753 397h-160q-7 0 -11.5 -5t-4.5 -11v-32q0 -7 4.5 -11.5t11.5 -4.5h160q6 0 11 4.5t5 11.5v32q0 6 -5 11t-11 5zM368.5 605q-59.5 0 -101.5 -42.5t-42 -102t42 -101.5t102 -42q47 0 84.5 27t51.5 71v0q2 6 4 13v1q2 7 3 13v1.5v0.5v2v6q1 0 1 0.5v1v0.5v0v7
q0 59 -42.5 101.5t-102 42.5zM369 461v-80q-33 0 -56.5 23.5t-23.5 56.5t23.5 56.5t56.5 23.5t56.5 -23.5t23.5 -56.5h-80zM753 493h-160q-7 0 -11.5 -5t-4.5 -11v-32q0 -7 4.5 -11.5t11.5 -4.5h160q6 0 11 4.5t5 11.5v32q0 6 -5 11t-11 5zM977 781h-928q-7 0 -11.5 -5
t-4.5 -11v-608q0 -7 4.5 -11.5t11.5 -4.5h396l-178 -116q-14 -8 -6 -22l16 -28q3 -6 9 -7.5t12 1.5l215 140l215 -140q5 -3 11.5 -1.5t9.5 7.5l15 28q8 14 -5 22l-179 116h397q6 0 11 4.5t5 11.5v608q0 6 -5 11t-11 5zM929 221q0 -7 -5 -11.5t-11 -4.5h-800q-7 0 -11.5 4.5
t-4.5 11.5v480q0 6 4.5 11t11.5 5h800q6 0 11 -5t5 -11v-480zM753 589h-160q-7 0 -11.5 -5t-4.5 -11v-32q0 -7 4.5 -11.5t11.5 -4.5h160q6 0 11 4.5t5 11.5v32q0 6 -5 11t-11 5z" />
    <glyph glyph-name="shouhuodizhi" unicode="&#xe64e;" 
d="M518 848q-105 0 -195 -52.5t-142.5 -143.5t-52.5 -198q0 -63 42 -156q36 -74 118 -183q32 -38 109 -121l35 -36q2 -2 5.5 -5t5.5 -4.5t2 -2.5v0q29 -29 70 -29t67 29v0h1l1 1l1 1v1h1l1 1l1 1l1 1v1h1l1 1l1 1l1 1l1 1l1 1l35 36q39 38 109 121q79 94 119 183
q41 83 41 156q4 80 -25 153.5t-81 126t-124 83.5t-151 31zM822 320q-38 -82 -115 -173q-70 -83 -105 -118l-36 -35l-1 -2l-1 -1l-1 -1l-1 -1l-2 -1l-1 -1l-1 -2l-1 -1l-1 -1l-1 -1l-1 -1q-15 -15 -35.5 -15t-35.5 15v0l-1 1l-1 1v0l-1 1l-1 1l-1 1l-2 2l-1 1l-1 1l-1 1v0
l-1 1l-2 2l-35 35q-6 7 -32.5 35t-42.5 46t-30 37q-72 91 -116 173q-38 77 -38 134q0 95 46 174.5t124.5 125.5t171.5 46t172 -46t125 -125.5t46 -174.5q0 -57 -39 -134zM518.5 634q-71.5 0 -120.5 -50.5t-49 -122.5t50 -122.5t119.5 -50.5t119.5 50.5t50 122.5t-49 122.5
t-120.5 50.5zM518.5 339q-50.5 0 -86 36t-35.5 89t35.5 89t86 36t86 -36t35.5 -89t-35.5 -89t-86 -36z" />
    <glyph glyph-name="shouye" unicode="&#xe64f;" 
d="M970 394l-119 112l-323 300q-16 16 -32 0l-314 -297q-4 -5 -9 -10l-119 -112q-16 -16 0 -32q8 -7 16.5 -7t15.5 7l84 80v-393q0 -37 27 -63.5t65 -26.5h84q29 0 49.5 19.5t20.5 47.5v218h99h99v-218q0 -26 21 -46.5t50 -20.5h83q39 0 66 26t27 64v396l80 -73q16 -16 32 0
q5 4 4.5 13t-7.5 16zM810 38q0 -19 -13 -31.5t-32 -12.5h-83q-10 0 -16.5 6t-6.5 16v240q0 10 -6.5 16t-15.5 6h-122h-121q-10 0 -16.5 -6t-6.5 -16v-240q0 -10 -6.5 -16t-15.5 -6h-83q-20 0 -32.5 12.5t-12.5 31.5v439l294 281l295 -281v-439z" />
    <glyph glyph-name="sousuo" unicode="&#xe651;" 
d="M966 -29l-230 227q96 107 96 256q0 107 -52.5 197t-142.5 142t-195 52q-107 0 -197 -52.5t-142 -142.5t-52 -196t52.5 -196t142.5 -142t196 -52q149 0 256 96l230 -227q7 -7 19 -7t19 7q10 9 10 20t-10 18zM102 454.5q0 91.5 45 169.5t123.5 124t171.5 46t171 -45.5
t123 -123.5t45 -171q0 -66 -24.5 -126.5t-68.5 -106.5q-2 0 -3.5 -1.5t-2.5 -1.5q-4 -4 -4 -7q-46 -44 -106.5 -68.5t-126.5 -24.5q-93 -1 -172 44t-125 123t-46 169.5z" />
    <glyph glyph-name="wodejuhuasuan" unicode="&#xe659;" 
d="M621 410q42 29 67.5 75t25.5 97q0 89 -62.5 150.5t-149.5 61.5q-86 0 -148.5 -62.5t-62.5 -149.5q0 -54 26.5 -101.5t69.5 -74.5q-156 -36 -253.5 -150t-85.5 -256v0v0q0 -10 3 -13q3 -5 9 -9t10 -4h880q8 0 14 6.5t9 16.5v0v0v0q9 98 -35.5 186t-128 147t-188.5 80z
M336 585.5q0 67.5 48 115.5t115 48t115 -48t48 -115.5t-48 -115.5t-115 -48t-115 48t-48 115.5zM96 26q-5 94 49.5 174.5t151.5 127t212 46.5h3q115 0 212 -46t152 -126.5t52 -175.5h-832z" />
    <glyph glyph-name="yijianfankui" unicode="&#xe662;" 
d="M874 621q-12 0 -19 -8t-7 -18v-550q0 -22 -15 -36.5t-36 -14.5h-643q-22 0 -37 14.5t-15 36.5v646q0 22 15 36.5t37 14.5h521q12 0 19 8t7 18t-8 18t-18 8h-521q-43 0 -74.5 -31t-31.5 -72v-646q0 -43 31 -73t75 -30h643q43 0 74 30t31 73v550q-5 26 -28 26zM483 534
h-278q-12 0 -19 -7.5t-7 -17.5t8 -18t18 -8h278q12 0 19 8t7 18q0 11 -8 18t-18 7zM179 329.5q0 -9.5 8 -17.5t18 -8h461q11 0 18 7.5t7 18.5q0 9 -8 17t-17 8h-461q-10 0 -18 -8t-8 -17.5zM969.5 838.5q-7.5 7.5 -18 7.5t-20.5 -8l-326 -323q-7 -7 -7 -17.5t7 -17.5t18 -7
t20 7l327 323q7 7 7 17.5t-7.5 18z" />
    <glyph glyph-name="zhaoxiangji" unicode="&#xe663;" 
d="M512 608q-94 0 -159 -65t-65 -159t65 -159t159 -65t159 65t65 159t-65 159t-159 65zM512 208q-72 0 -124 52t-52 124t52 124t124 52t124 -52t52 -124t-52 -124t-124 -52zM768 525q0 21 15 36t36 15t36 -15t15 -36t-15 -36t-36 -15t-36 15t-15 36zM864 672h-96l-22 67
q-5 12 -17.5 20.5t-24.5 8.5h-384q-14 0 -25.5 -8t-16.5 -21l-22 -67h-96q-41 0 -68.5 -27.5t-27.5 -68.5v-448q0 -40 28.5 -68t67.5 -28h704q41 0 68.5 27.5t27.5 68.5v448q0 41 -27.5 68.5t-68.5 27.5zM912 128q0 -19 -14.5 -33.5t-33.5 -14.5h-704q-19 0 -33.5 14.5
t-14.5 33.5v448q0 19 14.5 33.5t33.5 14.5h96h35l10 32l22 64h378l22 -64l10 -32h35h96q19 0 33.5 -14.5t14.5 -33.5v-448z" />
    <glyph glyph-name="parameter" unicode="&#xe8af;" horiz-adv-x="1025" 
d="M174 550q9 -9 22.5 -9t22.5 9l149 149q9 9 9 22.5t-9.5 23t-22.5 9.5t-23 -10l-126 -126l-71 71q-9 10 -22 10t-22.5 -9.5t-9.5 -23t9 -22.5zM406 864h-364q-18 0 -30 -12.5t-12 -29.5v-365q0 -17 12 -29t30 -12h364q17 0 29.5 12t12.5 29v365q0 17 -12.5 29.5
t-29.5 12.5zM384 480h-320v320h320v-320zM576 672h416q13 0 22.5 9.5t9.5 22.5t-9.5 22.5t-22.5 9.5h-416q-13 0 -22.5 -9.5t-9.5 -22.5t9.5 -22.5t22.5 -9.5zM992 544h-416q-13 0 -22.5 -9.5t-9.5 -22.5t9.5 -22.5t22.5 -9.5h416q13 0 22.5 9.5t9.5 22.5t-9.5 22.5
t-22.5 9.5zM174 38q9 -9 22 -9q14 0 23 9l149 149q9 9 9 22.5t-9.5 23t-22.5 9.5t-23 -10l-126 -126l-71 71q-9 10 -22 10t-22.5 -9.5t-9.5 -23t9 -22.5l94 -94v0zM406 352h-364q-18 0 -30 -12t-12 -30v-365q0 -17 12 -29t30 -12h364q17 0 29.5 12t12.5 29v365
q0 17 -12.5 29.5t-29.5 12.5zM384 -32h-320v320h320v-320zM992 224h-416q-13 0 -22.5 -9.5t-9.5 -22.5t9.5 -22.5t22.5 -9.5h416q13 0 22.5 9.5t9.5 22.5t-9.5 22.5t-22.5 9.5zM992 32h-416q-13 0 -22.5 -9.5t-9.5 -22.5t9.5 -22.5t22.5 -9.5h416q13 0 22.5 9.5t9.5 22.5
t-9.5 22.5t-22.5 9.5z" />
    <glyph glyph-name="wangluo" unicode="&#xe62e;" 
d="M991 417q-13 0 -22.5 -10t-9.5 -23q0 -152 -91.5 -271t-234.5 -159q152 152 152 433q0 82 -13.5 153.5t-34 120.5t-49 91t-52.5 65.5t-50 42.5t-36.5 24.5t-17.5 8.5l-8 2l-8 1h-4q-104 0 -199 -40.5t-163.5 -109t-109 -163.5t-40.5 -199t40.5 -199t109 -163.5
t163.5 -109t199 -40.5t199 40.5t163.5 109t109 163.5t40.5 199q0 13 -9.5 23t-23.5 10v0zM382 812q-78 -83 -114 -204h-142q42 73 108.5 126t147.5 78v0zM108 576q3 -1 5 -1h146q-20 -83 -21 -182h-173q2 97 43 183v0zM117 175q-46 87 -51 185h172q3 -99 27 -183h-141
q-4 0 -7 -2v0zM135 144h140q39 -114 115 -190q-79 22 -145 71.5t-110 118.5v0zM480 -37q-89 62 -136 181h136v-181v0zM480 177h-147q-26 82 -29 184h176v-184v0zM480 393h-177q1 100 23 182h154v-182v0zM480 608h-144q46 135 144 204v-204v0zM545 810q97 -69 142 -202h-142
v202v0zM545 575h152q23 -83 23 -182h-175v182v0zM545 361h175q-3 -102 -29 -184h-146v184v0zM545 -36v180h134q-46 -117 -134 -180v0zM939 501q0 -17 12 -29t29 -12t29 12t12 29t-12 29t-29 12t-29 -12t-12 -29v0zM939 575q15 0 25 10.5t10 25t-10 24.5t-24.5 10t-25 -10.5
t-10.5 -24.5t10.5 -24.5t24.5 -10.5v0zM872 681q11 0 18.5 7.5t7.5 18.5t-7.5 18.5t-18 7.5t-18 -7.5t-7.5 -18.5t7.5 -18.5t17.5 -7.5v0zM872 681z" />
    <glyph glyph-name="guanli" unicode="&#xe62a;" 
d="M334 880h-192q-58 0 -99.5 -42t-41.5 -100v-191q0 -57 41.5 -97.5t99.5 -40.5h330v329q0 59 -40.5 100.5t-97.5 41.5zM402 478h-260q-29 0 -50 20t-21 49v191q0 29 21 50t50 21h192q28 0 48 -20.5t20 -50.5v-260zM870 880h-191q-58 0 -100 -42t-42 -100v-329h333
q58 0 98 40t40 98v191q0 59 -40 100.5t-98 41.5zM938 547q0 -29 -19.5 -49t-48.5 -20h-264v260q0 29 22 50t51 21h191q29 0 48.5 -20.5t19.5 -50.5v-191v0zM1 202v-191q0 -58 41.5 -98.5t99.5 -40.5h192q57 0 97.5 40.5t40.5 98.5v332h-330q-58 0 -99.5 -41.5t-41.5 -99.5z
M402 11q0 -29 -19.5 -49t-48.5 -20h-192q-29 0 -50 20t-21 49v191q0 29 21 50.5t50 21.5h260v-263zM870 343h-333v-332q0 -58 42 -98.5t100 -40.5h191q58 0 98 40.5t40 98.5v191q0 58 -40 99.5t-98 41.5zM938 11q0 -29 -19.5 -49t-48.5 -20h-191q-30 0 -51.5 20t-21.5 49
v263h264q29 0 48.5 -21.5t19.5 -50.5v-191z" />
    <glyph glyph-name="xiangmuguanli" unicode="&#xe634;" 
d="M831 608q0 40 -28 68t-68 28h-575q-40 0 -68 -28t-28 -68v-575q0 -40 28 -68t68 -28h575q40 0 68 28t28 68v575zM160 640h575q13 0 22.5 -9t9.5 -23v-159h-639v159q0 14 9 23t23 9zM735 1h-575q-14 0 -23 9.5t-9 22.5v352h639v-352q0 -13 -9.5 -22.5t-22.5 -9.5zM704 577
h-64v-64h64v64zM224 513h287q14 0 23 9t9 22.5t-9 23t-23 9.5h-287q-14 0 -23 -9.5t-9 -23t9 -22.5t23 -9zM863 832h-575q-40 0 -68 -28t-28 -68h64q0 14 9 23t23 9h575q13 0 22.5 -9t9.5 -23v-575q0 -13 -9.5 -22.5t-22.5 -9.5v-64q40 0 68 28t28 68v575q0 40 -28 68
t-68 28z" />
    <glyph glyph-name="peizhi" unicode="&#xe601;" 
d="M486 804v-410h52v410l87 -77l35 36l-128 118q-7 7 -17.5 7t-17.5 -7l-128 -118l35 -36zM957 317l-112 287q-8 16 -26 16h-118v-52h103l92 -235h-276q-12 0 -19 -7t-7 -19v-169h-82h-82v169q0 12 -7 19t-19 7h-276l92 235h103v52h-118q-18 0 -26 -16l-112 -287v-10v-389
q0 -11 7 -18.5t18 -7.5h420h420q11 0 18 7.5t7 18.5v389v10zM512 -56h-394v338h261v-169q0 -12 7 -19t18 -7h108h108q11 0 18 7t7 19v169h261v-338h-394z" />
    <glyph glyph-name="peizhi-copy" unicode="&#xe602;" 
d="M214 -26h49q11 0 19 8t8 19v281h-103v-281q0 -11 8 -19t19 -8zM536 794h-48q-11 0 -19 -8t-8 -19v-417h102v417q0 11 -7.5 19t-19.5 8zM263 794h-49q-11 0 -19 -8t-8 -19v-246h103v246q0 11 -8 19t-19 8zM810 794h-48q-12 0 -20 -8t-8 -19v-144h103v144q0 11 -8 19t-19 8
zM871 589h-171q-14 0 -24 -10t-10 -24v-103q0 -14 10 -24t24 -10h171q14 0 24.5 10t10.5 24v103q0 14 -10.5 24t-24.5 10zM761 -26h49q11 0 19 8t8 19v383h-103v-383q0 -11 8 -19t19 -8zM598 316h-172q-14 0 -24 -10t-10 -24v-103q0 -14 10 -24t24 -10h171q15 0 25 10t10 24
v103q0 14 -10 24t-24 10zM488 -26h48q11 0 19 8t8 19v110h-102v-110q0 -11 7.5 -19t19.5 -8zM324 486h-171q-14 0 -24.5 -10t-10.5 -24v-102q0 -14 10.5 -24t24.5 -10h171q14 0 24 10t10 24v102q0 14 -10 24t-24 10z" />
    <glyph glyph-name="jifangjiankong" unicode="&#xe612;" horiz-adv-x="1041" 
d="M190 389h-151v113h151v27h-151v113h151h157v112h-348v-740h348v79h-157v296zM102 234h-64v35h64v-35zM102 298h-64v35h64v-35zM62 475h128v-63h-128v63zM62 617h128v-63h-128v63zM236 602v-470h789v470h-789zM978 178h-696v378h696v-378zM763 106h-265v-53h-53v-39h371
v39h-53v53z" />
    <glyph glyph-name="shebeituopu" unicode="&#xe813;" 
d="M130 -71v715l44 33v-701h674v819h-520l61 48h503v-914h-762zM905 -84h-787v734l69 53v-715h649v795h-546l95 72h520v-939zM143 -59h736v889h-486l-28 -22h496v-845h-700v688l-18 -14v-696zM613 143h145v-75h-145v75zM771 55h-171v101h171v-101zM625 80h120v50h-120v-50z
M613 296h145v-75h-145v75zM771 208h-171v101h171v-101zM625 234h120v49h-120v-49zM613 449h145v-75h-145v75zM771 361h-171v101h171v-101zM625 387h120v50h-120v-50zM583 118v-26h-104v2h-13v426h-61v-23h-145v97h145v-48h61h26v-116h91v-27h-91v-132h91v-26h-91v-127h91z
M596 79h-130v2h-13v426h-35v-23h-171v123h171v-48h86v-117h92v-51h-92v-107h92v-51h-92v-102h92v-52zM491 105h80v0h-80v0zM478 107h1v151h92v1h-92v157h92v1h-92v116h-87v48h-119v-71h119v22h86v-425zM328 677h-154l154 118v-118zM341 664h-205l205 157v-157zM212 690h103
v79z" />
    <glyph glyph-name="safe" unicode="&#xe61f;" 
d="M512 896l432 -185v-281q0 -97 -32.5 -188t-89.5 -165q-59 -76 -138 -129.5t-172 -75.5q-93 22 -172 75.5t-138 129.5q-57 74 -89.5 165t-32.5 188v281zM512 385v410l-337 -146v-264h337v-415q68 19 124.5 59.5t99.5 95.5q45 55 74 121t39 139h-337z" />
    <glyph glyph-name="bk-conf" unicode="&#xe616;" 
d="M464 400h-336v352h336v-352zM176 448h240v256h-240v-256zM464 0h-336v352h336v-352zM176 48h240v256h-240v-256zM848 0h-336v352h336v-352zM560 48h240v256h-240v-256zM839 549l15 2l-15 102l-15 -2q-10 -2 -19 2q-14 5 -20 19t0 28l5 15l-94 37l-6 -14q-5 -15 -19 -21
t-28 0q-9 3 -15 11l-10 12l-80 -65l10 -12q13 -17 5.5 -36.5t-28.5 -22.5l-15 -2l15 -103l15 3q9 1 19 -2q14 -6 20 -20t0 -28l-5 -14l94 -37l6 14q5 14 19 20t28 1q9 -4 15 -11l10 -12l80 64l-10 13q-13 16 -5.5 36t28.5 23zM781.5 537q-10.5 -27 2.5 -54l-35 -28
q-8 6 -17 10q-22 8 -44.5 1t-35.5 -26l-40 16q3 23 -8.5 43.5t-33.5 28.5q-9 4 -19 5l-7 44q28 11 38.5 38.5t-2.5 53.5l35 28q8 -6 17 -9q22 -9 44 -2t36 26l40 -15q-3 -23 8.5 -43.5t33.5 -29.5q9 -3 19 -4l6 -45q-27 -11 -37.5 -38zM681.5 663q-36.5 0 -62.5 -25.5
t-26 -62t26 -62.5t62.5 -26t62 26t25.5 62.5t-25.5 62t-62 25.5zM681.5 519q-23.5 0 -40 16.5t-16.5 39.5t16.5 39.5t40 16.5t39.5 -16.5t16 -39.5t-16 -39.5t-39.5 -16.5z" />
    <glyph glyph-name="guanli3" unicode="&#xe63a;" 
d="M385 128h-227q-19 0 -33 14t-14 34v44q0 24 20 38q10 8 20 12l160 87l15 22l-15 -19q-38 31 -57 85t-19 98v104q0 53 58.5 98.5t125.5 45.5q66 0 124 -45.5t58 -98.5v-104q0 -11 -2 -27.5t-8 -47t-22.5 -60t-40.5 -48.5q1 -10 -5.5 -18t-16.5 -8.5t-17.5 5.5t-8.5 15
q-2 27 19 43q28 23 41 66.5t13 79.5v104q0 30 -42 63.5t-92 33.5t-93.5 -33.5t-43.5 -63.5v-104q0 -36 15.5 -79.5t43.5 -66.5q21 -16 18.5 -42.5t-25.5 -39.5l-162 -87l-14 -8v-44h227q10 0 17 -7t7 -17t-7 -17t-17 -7v0zM741 -64l5 23h2l18 -11q16 -11 36.5 -10t32.5 14
l19 18q12 13 13 31.5t-9 35.5l-12 20v0.5v1.5l22 5q20 5 32.5 18.5t12.5 31.5v27q0 19 -13.5 33.5t-31.5 17.5l-21 5q-1 1 -1 2l11 20q11 18 10 36t-13 31l-19 19q-12 12 -33 13t-35 -9l-19 -12l-2 1l-5 21q-3 18 -17 32t-34 14h-27q-18 0 -31.5 -12.5t-18.5 -31.5l-5 -22
l-4 -2l-19 12q-16 11 -36 9.5t-33 -13.5l-19 -19q-12 -13 -13 -31t10 -36l13 -21l-1 -1v0l-21 -5q-18 -3 -31.5 -17.5t-13.5 -33.5v-27q0 -18 12 -31.5t32 -18.5l22 -5l-12 -22q-11 -17 -10 -35.5t13 -31.5l19 -18q12 -13 33 -14t35 9l20 13l4 -2l6 -22q4 -20 18 -32.5
t31 -12.5h27q20 0 34 14t17 31zM589 7l-31 -20q-3 -2 -9 -2l-18 18q-1 3 3 10l20 32q6 11 0 23q-4 9 -7 18q-4 12 -17 16l-35 8q-4 1 -8 4v0v26q1 4 8 5l34 8q13 3 17 16q3 9 8 20q6 11 0 22l-20 33q-2 3 -3 8v0l20 20q4 0 7 -3l31 -19q12 -8 24 -1q11 5 22 9q13 4 16 17
l9 34q0 1 3 9h27q3 -1 5 -8l7 -35q3 -13 16 -17q11 -4 21 -9q12 -6 24 1l30 20q3 2 9 1l18 -18q1 -3 -3 -9l-19 -31q-6 -11 0 -23q5 -11 8 -21q4 -13 18 -16l35 -8q6 -1 7 -5v-25q-2 -3 -9 -5l-34 -8q-13 -4 -17 -16q-4 -10 -8 -19q-6 -12 0 -23l19 -32q2 -3 3 -8v0l-20 -19
q-4 0 -7 2l-31 19q-11 8 -23 1q-10 -5 -21 -8q-12 -4 -15 -18l-8 -35q-1 -6 -5 -7h-26q-3 1 -4 8l-9 35q-3 13 -16 16q-11 4 -22 10q-5 3 -11 3q-7 0 -13 -4v0zM781 128q0 43 -30.5 73.5t-74 30.5t-74 -30.5t-30.5 -73.5t30.5 -73.5t74 -30.5t74 30.5t30.5 73.5zM733 128.5
q0 -23.5 -16.5 -40t-40 -16.5t-40 16.5t-16.5 40t16.5 40t40 16.5t40 -16.5t16.5 -40z" />
    <glyph glyph-name="shouye1" unicode="&#xe654;" 
d="M949 402l-414 366q-10 8 -23 8t-23 -8l-414 -366q-18 -17 -9.5 -39.5t32.5 -22.5h68v-196q0 -63 44.5 -107.5t107.5 -44.5h263h1q38 0 65.5 27.5t27.5 66.5v170q0 39 -28 66.5t-66 27.5h-138q-38 0 -66 -27.5t-28 -66.5v-110q0 -14 10.5 -24.5t25 -10.5t25 10.5
t10.5 24.5v110q0 10 7 16.5t16 6.5h138q9 0 16 -6.5t7 -16.5v-170q0 -10 -7 -17t-16 -7h-263q-34 0 -58 24t-24 58v231q0 15 -10.5 25t-24.5 10h-10l321 284l321 -284h-10q-14 0 -24.5 -10t-10.5 -25v-231q0 -45 -39 -69q-12 -8 -15 -22.5t4.5 -26.5t22 -15.5t26.5 4.5
q33 21 52 55.5t19 73.5v196h68q24 0 32.5 22.5t-9.5 39.5z" />
    <glyph glyph-name="xitongguanli" unicode="&#xe63b;" 
d="M510.5 206q-76.5 0 -131 54t-54.5 130t54.5 130t131 54t130.5 -54t54 -130t-54 -130t-130.5 -54zM510 513q-51 0 -87 -36t-36 -87t36 -86.5t87 -35.5t87 35.5t36 86.5t-36 87t-87 36zM390 -57h-1q-4 0 -8 1h-1v0q-105 32 -184 107l-1 1v0l-2 2v0l-2 2v0q-1 2 -1 3v0l-2 2
v1q0 1 -1 2v1v2h-1v3v0v3v0v3v0v3t1 3v0q0 1 1 3v0v0q0 1 1 2v1q1 1 1 2h1v1v0q18 26 18 58q0 44 -31.5 75t-75.5 31h-6v0h-1h-2v0h-1v0h-2l1 3l-1 -3v0h-1l-1 1h-1v0h-1h-1v0v0l-1 1h-1v0l-1 1h-1v0l-1 1h-0.5h-0.5l-1 1h-0.5t-0.5 1h-1v1h-1h-1v1l-0.5 0.5l-0.5 0.5l-1 1
v0l-1 1l2 2l-2 -2v0l-1 1v0l-1 1v0.5v0.5h-1v1v0l-1 1v1v1v0q-1 0 -1 1v0v0v2h-1v1v0v1v1h-1q-12 52 -12 105t12 104l1 1v2v0v1v0l1 1v1l1 1v0v1v1h1v1h1v1v1l1 1v0q1 0 1 1v0l1 1v0l1 1v0v0l1 1v0l1 1v0l0.5 0.5l0.5 0.5h1v1h1h1v1h1l1 1v0h1v0q1 1 2 1v0h1v0l1 1h1h1v0h1
q1 0 1 1v0h2v0h1v0h2v0h1v0h6q44 0 75.5 31t31.5 74q0 32 -18 59v0l-1 1q0 1 -1 2v0q-1 2 -1 3v0q-1 1 -1 3v0q-1 1 -1 2v1v0v3v0v3v0v2v1v2l1 1v2v1q1 1 1 2v0q1 2 2 3v0q0 1 1 2v1l2 2v0l2 2l1 1q80 75 185 107v0v0q4 1 8 1h1q4 0 9 -1v0l1 -1v0v0h1h1v0q0 -1 1 -1v0
q7 -3 11 -9q2 -2 4 -5v-1v0q13 -28 39 -44t57 -16t57 16.5t39 43.5q2 5 5 8q4 4 8 6l1 1v0h1v0l1 1h1v0h1v0q5 2 10 2h1q4 0 8 -1v0v0q106 -32 186 -108h2v-2q0 -1 1 -1v-1v0l2 -2v0q1 -1 1 -2v0q1 -2 2 -3v0q0 -1 1 -3v0v-3v0q1 -1 1 -3v0q1 -5 -1 -11v0v-1q0 -1 -1 -2v0v0
q0 -2 -1 -3v0q-1 -1 -1 -2l-1 -1v0q-17 -26 -17 -58q0 -43 31 -74t75 -31h5v0h1h3v0q1 0 2 -1v0h1h1v0h1v0h1q0 -1 1 -1v0h1v0q1 0 1 -1v0v0h2v0v-1h1v0q1 0 1 -1h1l0.5 -0.5l0.5 -0.5h1q0 -1 1 -1v0q3 -3 6 -7v0v0v-1h1v-1v-1h1v-1v0v0v0q0 -1 1 -1v-1v0q1 -2 1 -4
q12 -52 12 -105.5t-12 -104.5q0 -2 -1 -5v0v0q-1 0 -1 -1v0v0v-1q-1 0 -1 -0.5v-0.5v0v-1h-1v-1v-1h-1v0v-1q-2 -1 -3 -3l-1 -1v0v0v0l-1 -1h-1v0q0 -1 -0.5 -1h-0.5v0l-1 -1v0v0h-1q-3 -2 -6 -3v-1h-1h-1h-1v0h-0.5h-0.5l-1 -1v0l-1 3l1 -3h-2v0h-1v0h-2v0h-1v0h-5
q-44 0 -75 -31t-31 -75q0 -31 17 -57v0v-1h1q0 -1 1 -2v-1q1 -1 1 -2v0q1 -1 1 -3v0q0 -1 1 -3v0v-6v0v-2v-1q0 -1 -1 -2v-1v-2v-1q-1 -1 -1 -2v0q-1 -2 -2 -3v0q0 -1 -1 -2v-1l-2 -2v0l-2 -2v0v0q-81 -77 -187 -109q-4 -1 -9 -1v0h-1h-1h-1v0v0q-2 0 -4 1v0h-1h-1v0h-1
l-1 1h-0.5h-0.5v0q-1 0 -1 1h-1q-6 3 -10 8l-4 6q-13 28 -39 44.5t-57 16.5t-57 -16.5t-39 -43.5v0v-1l-4 -6q-4 -5 -11 -8v0l-0.5 -0.5t-1 -0.5h-0.5l-1 3l1 -3h-1v-1v0h-2q-4 -1 -8 -1zM513.5 83q41.5 0 78 -19t60.5 -53q67 24 121 71q-14 32 -14 67q0 65 44 113
q42 46 105 54q5 33 5 67.5t-5 68.5q-63 7 -105 54q-44 48 -44 112q0 36 14 68q-54 47 -121 71q-24 -34 -60.5 -53t-78 -19t-78 19t-59.5 53q-66 -24 -120 -70q15 -32 15 -69q0 -65 -45 -113q-43 -46 -106 -53q-6 -34 -6 -68t6 -68q63 -7 106 -54q45 -47 45 -113
q0 -36 -15 -69q54 -45 120 -69q23 34 59.5 53t78 19z" />
    <glyph glyph-name="101-copy" unicode="&#xe638;" 
d="M522.5 508q-55.5 0 -95.5 -39.5t-40 -95.5t40 -95.5t95.5 -39.5t95 39.5t39.5 95.5t-39.5 95.5t-95 39.5zM522.5 299q-30.5 0 -52 21.5t-21.5 52t21.5 52t52 21.5t52 -21.5t21.5 -52t-21.5 -52t-52 -21.5zM967 403h-33q-5 68 -31 130q-32 75 -89 132t-131 88
q-62 27 -130 32v32q0 13 -9 22t-21.5 9t-21.5 -9t-9 -22v-33q-68 -4 -130 -31q-74 -31 -131.5 -88t-88.5 -132q-26 -62 -31 -130h-34q-12 0 -21 -8.5t-9 -21.5t9 -22t21 -9h34q5 -68 31 -130q31 -74 88.5 -131t131.5 -89q62 -26 130 -31v-31q0 -13 9 -22t21.5 -9t21.5 9
t9 22v31q68 5 130 31q74 32 131 89t89 131q26 62 31 130h33q13 0 22 9t9 22t-9 21.5t-22 8.5zM553 23v71q0 13 -9 22t-21.5 9t-21.5 -9t-9 -22v-71q-127 11 -218 101.5t-102 217.5h75q13 0 22 9t9 22t-9 21.5t-22 8.5h-75q11 127 102 218t218 102v-69q0 -13 9 -22t21.5 -9
t21.5 9t9 22v69q127 -11 217.5 -101.5t101.5 -218.5h-75q-13 0 -22 -8.5t-9 -21.5t9 -22t22 -9h75q-11 -127 -101.5 -217.5t-217.5 -101.5v0z" />
    <glyph glyph-name="yingjianguanli1" unicode="&#xe716;" 
d="M801 725h-578l-159 -341v-341h896v341zM891 112h-758v243h758v-243zM545 284h100v-101h-100v101zM719 284h101v-101h-101v101z" />
    <glyph glyph-name="baozhang" unicode="&#xe648;" 
d="M861 706q-16 15 -38 15h-4h-24q-63 0 -113 12q-25 6 -54.5 24.5t-56.5 41t-29 24.5q-14 9 -31 9q-20 0 -32 -9q-2 -2 -18 -17t-31 -27.5t-39.5 -26.5t-47.5 -19q-50 -12 -114 -12h-24h-4q-22 0 -38 -15q-18 -16 -18 -41v-140q0 -106 19.5 -195t48 -147.5t68.5 -105
t73 -71t70 -41.5t52 -21t25 -6q5 -1 10 -1t10 1q10 2 24.5 6t52 21t71 41.5t73.5 71t69 105t48.5 147.5t19.5 195v140q0 25 -18 41v0v0v0zM823 525q0 -97 -17.5 -179t-44.5 -135.5t-61.5 -95t-66 -63.5t-61 -36.5t-44.5 -18.5t-17 -4q-7 1 -18 4t-43 18t-61.5 37t-65 64
t-61.5 95t-43.5 135t-17.5 179v140h28q71 0 127 13q35 9 73.5 33.5t59.5 44.5l22 20q9 -9 24 -22.5t57 -40t76 -35.5q57 -13 127 -13h28v-140v0v0v0zM823 525zM724 482q10 10 10 24t-10 24v0q-10 10 -24 10t-24 -10l-218 -219l-110 110q-10 10 -24 10t-24 -10t-10 -24
t10 -24l134 -134q9 -10 23.5 -10t24.5 10l242 243v0zM724 482z" />
    <glyph glyph-name="jifangsheshi" unicode="&#xe6ee;" 
d="M961 307v-188q0 -39 -27.5 -66.5t-66.5 -27.5h-714q-38 0 -66 27.5t-28 66.5v188q0 14 10 44l115 355q10 31 37 50.5t60 19.5h459q32 0 59 -19.5t37 -50.5l116 -355q9 -30 9 -44zM886 119v188q0 7 -5.5 12.5t-13.5 5.5h-714q-7 0 -12.5 -5.5t-5.5 -12.5v-188
q0 -8 5.5 -13.5t12.5 -5.5h714q8 0 13.5 5.5t5.5 13.5zM164 400h692l-92 283q-2 8 -9 13t-15 5h-459q-9 0 -16 -5t-9 -13zM656 246q14 -14 14 -33.5t-14 -33t-33.5 -13.5t-33 13.5t-13.5 33t14 33.5t33 14t33 -14zM806 246q14 -14 14 -33.5t-13.5 -33t-33 -13.5t-33.5 13.5
t-14 33t14 33.5t33 14t33 -14z" />
    <glyph glyph-name="baobiao2" unicode="&#xe614;" 
d="M839 649q0 -12 8.5 -21t21 -9t21.5 9t9 21v153q0 12 -9 21t-21 9h-153q-12 0 -21 -9t-9 -21.5t9 -21t21 -8.5h83l-263 -263l-82 81q-9 9 -21 9v0q-13 0 -21 -9l-279 -280q-9 -9 -9 -21.5t9 -21.5t21.5 -9t20.5 9l258 259l81 -81q9 -8 21.5 -8t21.5 8l282 282v-78z
M774 514h126v-578h-126v578zM564 395h126v-459h-126v459zM353 279h126v-343h-126v343zM143 152h126v-216h-126v216z" />
    <glyph glyph-name="peizhi1" unicode="&#xe645;" 
d="M681 523q-10 2 -17 -6l-62 -68l-41 4q-8 26 -10 38l63 71q7 7 4.5 17t-12.5 13q-36 10 -71.5 -0.5t-61.5 -39.5q-50 -56 -29 -124l-101 -112q-19 -22 -17.5 -51t23.5 -49q20 -18 46 -18h5q29 2 48 24l100 110q33 -6 65.5 5t56.5 38q26 28 32.5 65t-7.5 72q-4 9 -14 11z
M642 400q-40 -45 -96 -29q-11 3 -19 -6l-106 -118q-10 -10 -24 -11q-13 -1 -23 8q-11 9 -11.5 23t8.5 24l108 120q8 8 3 19q-21 53 19 97q26 28 61 32l-43 -48q-5 -5 -6 -9.5t2.5 -21.5t12.5 -49q4 -12 16 -14l63 -6q10 -1 16 6l44 48q1 -37 -25 -65zM835 280q44 1 75 33.5
t30 76t-32 76t-74 32.5h-1q-1 0 -2.5 -2t-2.5 -2q-3 9 -18 38q3 3 6 5q30 32 29.5 75.5t-31.5 74.5q-32 31 -75 30q-44 0 -75 -32l-3 -3q-21 10 -43 18v6q0 44 -31 75t-75 31t-75 -31t-31 -75v-6q-21 -7 -41 -17l-5 5q-31 31 -75 30.5t-75 -31.5t-30.5 -75t31.5 -74l4 -4
q-11 -21 -19 -44h-7q-44 0 -74.5 -31.5t-30.5 -75t32 -74.5q31 -30 74 -30h6q7 -22 17 -43l-5 -5q-31 -32 -30.5 -75.5t31.5 -74.5q31 -30 75 -30t75 31q2 2 3 4q21 -10 43 -18v-7q1 -44 32 -74.5t74 -30.5h1q44 0 74.5 31.5t30.5 75.5v4q22 8 43 18q2 -3 5 -5
q31 -31 75 -30.5t74.5 31.5t30.5 75t-32 75l-1.5 1.5t-1.5 2.5q10 20 18 44q1 0 3.5 0.5t3.5 0.5zM795 335q-11 -5 -14 -18q-10 -41 -32 -77q-7 -11 -3.5 -23t15.5 -17q8 -4 13 -9q15 -15 15 -35.5t-14.5 -35t-35 -15t-35.5 14.5q-5 6 -9 14q-6 11 -18 15t-22 -3
q-36 -22 -78 -32q-12 -3 -17.5 -13.5t-1.5 -22.5q3 -9 3 -16q0 -20 -14.5 -35t-35.5 -15v0q-20 0 -35 14.5t-15 34.5q0 8 3 17q5 12 -1 23t-18 14q-41 10 -77 32q-7 4 -15 4q-3 0 -8 -1q-11 -4 -17 -15q-4 -9 -9 -14q-15 -15 -35 -15v0q-20 0 -35 15q-15 14 -15 35t14 35
q6 6 14 10q12 6 15.5 17.5t-3.5 22.5q-21 36 -31 77q-3 12 -14 18t-23 2q-9 -3 -16 -3q-20 0 -35 14.5t-15 35t14.5 35t34.5 14.5q9 0 17 -3q12 -4 23 2t14 18q10 41 33 77q6 11 2.5 23t-14.5 17q-8 4 -13 9q-15 15 -15 35.5t14.5 35t35 15t34.5 -14.5q6 -6 10 -14
q6 -11 17.5 -15t22.5 3q36 21 76 31q12 3 18 14t1 22q-3 9 -3 17q0 20 14.5 35t35.5 15t35.5 -15t14.5 -35q0 -8 -3 -17q-5 -11 1 -22t18 -14q41 -10 78 -32q10 -7 22 -3.5t17 15.5q4 8 9 13q15 15 35.5 15t35 -14t15 -35t-13.5 -35q-6 -6 -15 -10q-11 -6 -14.5 -17.5
t2.5 -22.5q22 -36 32 -76q3 -11 14 -17q8 -4 23 1q2 1 7.5 4t8.5 3v0q20 0 35 -16t15 -37t-14.5 -38t-34.5 -17q-8 0 -17 3q-12 4 -23 -2v0z" />
    <glyph glyph-name="bangonghaocai" unicode="&#xe617;" 
d="M398 270h228v-57h-228v57zM398 156h228v-56h-228v56zM910 612h-170v170q0 25 -17.5 41t-39.5 16h-342q-21 0 -39 -17.5t-18 -39.5v-170h-170q-22 0 -39.5 -19t-17.5 -44v-341q0 -21 17.5 -36.5t39.5 -15.5h170v-113q0 -25 17.5 -41t39.5 -16h342q24 0 40.5 17t16.5 40
v113h170q22 0 39.5 15.5t17.5 36.5v341q0 25 -17.5 44t-39.5 19zM341 782h342v-170h-342v170zM341 43v284h342v-284h-342zM910 213h-170v114h28q13 0 20.5 8t7.5 20.5t-7.5 20.5t-20.5 8h-28h-57h-342h-57h-28q-13 0 -20.5 -8t-7.5 -20.5t7.5 -20.5t20.5 -8h28v-114h-170
v342h796v-342z" />
    <glyph glyph-name="1351xuqiudengji" unicode="&#xe604;" 
d="M720 622.5q0 6.5 -4.5 11t-10.5 4.5h-446q-6 0 -10.5 -4.5t-4.5 -11t4.5 -11t10.5 -4.5h446q6 0 10.5 4.5t4.5 11zM259 432q-6 0 -10.5 -4.5t-4.5 -10.5t4.5 -10.5t10.5 -4.5h302q6 0 10.5 4.5t4.5 10.5t-4.5 10.5t-10.5 4.5h-302zM350 -33h-102q-43 0 -73.5 31t-30.5 74
v624q0 44 30.5 74.5t73.5 30.5h481q43 0 73.5 -30.5t30.5 -74.5v-227q0 -7 4.5 -11.5t11 -4.5t11 4.5t4.5 11.5v227q0 56 -39.5 96t-95.5 40h-481q-55 0 -95 -40t-40 -96v-624q0 -56 40 -95.5t95 -39.5h102q7 0 11.5 4.5t4.5 10.5t-4.5 10.5t-11.5 4.5zM894 352
q-18 18 -44.5 18.5t-48.5 -17.5l-343 -313l-2 -95h94l341 313v1q15 15 19 40q4 32 -16 53zM870 280l-332 -305h-51l1 52l332 302q13 10 27.5 10.5t24.5 -9.5q9 -13 7 -27.5t-9 -22.5zM417 213h-158q-6 0 -10.5 -4.5t-4.5 -10.5t4.5 -10.5t10.5 -4.5h158q6 0 10.5 4.5
t4.5 10.5t-4.5 10.5t-10.5 4.5z" />
    <glyph glyph-name="shenqing2" unicode="&#xe65c;" 
d="M210 113h542v60h-542v-60zM210 233h542v61h-542v-61zM210 354h241v60h-241v-60zM692 758l-142 -142l43 -42l99 99l159 -160l43 43zM29 -68v904l301 -301h-84l-157 156v-699h723v302h60v-362h-843zM722 414q87 0 149 62t62 149t-62 149t-149 62t-149 -62t-62 -149t62 -149
t149 -62zM722 354q-112 0 -191.5 79.5t-79.5 191.5t79.5 191.5t191.5 79.5t191.5 -79.5t79.5 -191.5t-79.5 -191.5t-191.5 -79.5v0z" />
    <glyph glyph-name="yunweiguanli" unicode="&#xe60c;" 
d="M432 237l-179 83v1l179 83v52l-244 -120v-31l244 -119v51zM573 532h-43l-79 -367h43zM837 343l-244 113v-51l195 -84v-1l-195 -84v-50l244 112v45zM66 819v-813h893v813h-893zM811 767h81v-80h-81v80zM678 767h81v-80h-81v80zM537 767h81v-80h-81v80zM901 69h-776v545
h776v-545z" />
    <glyph glyph-name="baobiao3" unicode="&#xe619;" 
d="M861 -43h-698q-22 0 -37.5 16t-15.5 38v746q0 22 15.5 38t37.5 16h698q22 0 37.5 -16t15.5 -38v-746q0 -22 -15.5 -38t-37.5 -16zM861 704h-698v-693h698v693zM807 277h-590v374h590v-374zM530 429l-105 105q-1 1 -1 2t-1 2q-7 7 -19 7t-19 -7q-1 -1 -1.5 -2t-0.5 -2
l-105 -105q-8 -7 -8 -17.5t7.5 -18t18 -7.5t18.5 7l90 89l90 -89q7 -7 18 -7t18.5 7.5t7.5 18t-8 17.5zM746 588.5q0 0.5 -0.5 1.5l-0.5 1q-1 1 -3 1.5t-2 1.5v0l-6 2v0v0q-5 1 -7 1h-1.5h-0.5h-0.5h-1.5h-104q-11 0 -19 -7.5t-8 -18.5q0 -25 54 -27h15l-115 -115
q-8 -7 -8 -17.5t7.5 -18t18.5 -7.5t18 7l118 117v-46q0 -11 7.5 -19t19 -8t19 8t7.5 19v106v1v0q0 5 -2 10q-1 2 -4 6l-0.5 0.5t-0.5 1zM592 171h-375v53h375v-53zM753 64h-536v53h536v-53z" />
    <glyph glyph-name="pingzhengguanli01" unicode="&#xe606;" 
d="M692 246h-378q-5 0 -8.5 -3.5t-3.5 -8.5t3.5 -9t8.5 -4h378q5 0 9 4t4 9t-4 8.5t-9 3.5zM692 374h-378q-5 0 -8.5 -3.5t-3.5 -9t3.5 -9t8.5 -3.5h378q5 0 9 3.5t4 9t-4 9t-9 3.5zM692 502h-378q-5 0 -8.5 -4t-3.5 -9t3.5 -8.5t8.5 -3.5h378q5 0 9 3.5t4 8.5t-4 9t-9 4z
M961 719q0 48 -34.5 81.5t-83.5 33.5h-579h-1v0h-0.5h-0.5q-48 0 -81.5 -33.5t-33.5 -81.5v-673q0 -13 9 -22l94 -91q9 -8 22 -8t22 8l95 93l100 -96q9 -9 21.5 -9t21.5 9l100 96l99 -96q9 -9 21.5 -9t21.5 9l90 87q10 9 10 22v569q38 10 62.5 41t24.5 70zM753 -5l-100 96
q-9 9 -21.5 9t-21.5 -9l-99 -96l-100 96q-9 9 -21.5 9t-21.5 -9l-96 -92l-63 61v659q0 22 15.5 37.5t37.5 15.5h0.5h0.5v0h1v0q23 0 39 -15.5t16 -37.5t-16 -37.5t-39 -15.5q-13 0 -22.5 -9t-9.5 -22t9.5 -22t22.5 -9h548v-552zM843 666h-475q14 25 14 53t-14 53h475
q23 0 39.5 -15.5t16.5 -37.5t-16.5 -37.5t-39.5 -15.5z" />
    <glyph glyph-name="shezhi1" unicode="&#xe62b;" 
d="M665 -127v0q-29 0 -48 22q-19 21 -50 43.5t-58 22.5t-58 -22.5t-49 -42.5q-18 -22 -48 -22q-13 0 -24 6h-2l-125 75h-1q-18 13 -23.5 35t2.5 42q12 35 12 54q0 58 -39 99.5t-94 41.5h-5v0q-16 0 -28 13.5t-16 36.5q-11 68 -11 106.5t11 105.5q4 24 16 37.5t28 13.5h5
q55 0 94 41t39 99q0 25 -12 54q-8 21 -2.5 43t23.5 34l1 1l132 77l2 1q11 5 24 5q29 0 48 -21q19 -20 49 -41.5t57 -21.5q26 0 56 21t48 41q19 20 48 20q13 0 25 -5l1 -1l128 -75l1 -1q17 -12 23 -34t-2 -43q-1 -1 -3.5 -8t-5.5 -20.5t-3 -25.5q0 -58 39 -99t94 -41h4
q16 0 28.5 -13.5t16.5 -37.5q11 -49 11 -106q0 -48 -11 -106q-4 -23 -16 -36.5t-29 -13.5h-4q-55 0 -94 -41.5t-39 -99.5q0 -25 12 -54q8 -20 2 -42t-23 -34l-1 -1l-130 -76l-1 -1q-12 -5 -25 -5v0zM661 -62q2 -1 4 -1h1l121 71q-16 39 -16 78q0 82 53 141t130 63q9 56 9 93
q0 38 -9 93q-77 4 -130 63.5t-53 140.5q0 39 16 79l-119 70h-1q-3 0 -5 -1q-18 -20 -44 -39q-55 -41 -103 -41q-49 0 -105 42q-25 19 -44 40q-2 1 -5 1v0l-124 -72q16 -40 16 -79q0 -81 -53 -140t-130 -64q-9 -55 -9 -93q0 -35 9 -92q77 -5 130 -64t53 -141q0 -38 -16 -78
l117 -70v0q3 0 4 1q20 23 45 42q57 44 106 44q50 0 107 -45q28 -22 45 -42v0zM510 197q-74 0 -125.5 55t-51.5 132.5t51.5 132.5t125 55t125.5 -55t52 -132.5t-52 -132.5t-125 -55v0zM510 508q-49 0 -83 -36.5t-34 -87.5t34 -87.5t82.5 -36.5t83 36.5t34.5 87.5t-34.5 87.5
t-82.5 36.5v0zM510 508z" />
    <glyph glyph-name="anquanguanli" unicode="&#xe61d;" 
d="M267.5 475q-13.5 0 -23 9.5t-9.5 23.5v96q0 97 81 163t199 66q58 0 107.5 -18t83 -47.5t54.5 -65t29 -73.5q2 -13 -5.5 -24.5t-21.5 -14t-25 5t-14 21.5q-5 23 -18 47t-36.5 48t-63.5 39t-90 15q-89 0 -152 -47.5t-63 -114.5v-96q0 -14 -9.5 -23.5t-23 -9.5zM512 74
q-62 0 -106 44t-44 106t44 106t106 44t106 -44t44 -106t-44 -106t-106 -44zM512 307q-34 0 -58.5 -24.5t-24.5 -58.5t24.5 -58.5t58.5 -24.5t58.5 24.5t24.5 58.5t-24.5 58.5t-58.5 24.5zM831 -65h-638q-34 0 -57.5 24t-23.5 57v416q0 34 23.5 57.5t57.5 23.5h638
q34 0 57.5 -23.5t23.5 -57.5v-416q0 -33 -23.5 -57t-57.5 -24zM193 447q-6 0 -10.5 -4.5t-4.5 -10.5v-416q0 -6 4.5 -10t10.5 -4h638q6 0 10.5 4t4.5 10v416q0 6 -4.5 10.5t-10.5 4.5h-638z" />
    <glyph glyph-name="pingtai" unicode="&#xe6d9;" 
d="M903 830h-781q-23 0 -39.5 -16.5t-16.5 -39.5v-559q0 -23 16.5 -39t39.5 -16h335v-168h-112v-56h112h111h112v56h-112v168h335q24 0 40 16t16 39v559q0 23 -16 39.5t-40 16.5zM903 272q0 -41 -7.5 -48t-47.5 -7h-669q-42 0 -49.5 6.5t-6.5 48.5v445q0 42 7 49t49 7h669
q40 0 47.5 -8t7.5 -48v-445zM708 662h-391q-11 0 -19.5 -8t-8.5 -20v-56q0 -11 8.5 -19.5t19.5 -8.5h391q12 0 20 8.5t8 19.5v56q0 12 -8 20t-20 8zM708 439h-391q-11 0 -19.5 -8.5t-8.5 -19.5v-56q0 -12 8.5 -20t19.5 -8h391q12 0 20 8t8 20v56q0 11 -8 19.5t-20 8.5z" />
    <glyph glyph-name="fuwu" unicode="&#xe62c;" 
d="M475 337q-127 0 -217.5 -90t-90.5 -217q0 -17 2 -34q2 -13 -6.5 -23t-21.5 -12h-3q-12 0 -21.5 8t-10.5 20q-2 21 -2 41q0 118 67.5 213t174.5 135q-44 31 -70 79.5t-26 105.5q0 93 66 159.5t159.5 66.5t159.5 -66.5t66 -160t-66 -159.5t-160 -66zM475 725
q-67 0 -114.5 -47.5t-47.5 -114.5t47.5 -114.5t114.5 -47.5t114.5 47.5t47.5 114.5t-47.5 114.5t-114.5 47.5zM637 -21l86 85q23 -8 47 -8q60 0 101.5 42t41.5 101q0 30 -11 57l-4 8v0l-2 2q-5 5 -10 0v0l-80 -80l-48 49l78 78v0q6 6 0 12q-1 2 -3 2v0l-6 3q-27 12 -57 12
q-59 0 -100.5 -42t-41.5 -101q0 -25 8 -48l-86 -86q-18 -18 -18 -43v0q0 -25 18 -43t43.5 -18t43.5 18zM305 600h529v-65h-529v65z" />
    <glyph glyph-name="kanshu03-copy" unicode="&#xe66c;" 
d="M75 -2h875v-33h-875v33zM137 105h99q26 0 44.5 18.5t18.5 44.5v198q0 26 -18.5 44.5t-44.5 18.5h-99q-26 0 -44.5 -18.5t-18.5 -44.5v-198q0 -26 18.5 -44.5t44.5 -18.5v0zM107 366q0 13 8.5 21.5t21.5 8.5h99q12 0 21 -8.5t9 -21.5v-198q0 -13 -9 -22t-21 -9h-99
q-13 0 -21.5 9t-8.5 22v198zM462 105h99q26 0 44.5 18.5t18.5 44.5v572q0 26 -18.5 44.5t-44.5 18.5h-99q-26 0 -44 -18.5t-18 -44.5v-572q0 -26 18 -44.5t44 -18.5v0zM432 740q0 13 9 21.5t21 8.5h99q13 0 22 -8.5t9 -21.5v-572q0 -13 -9 -22t-22 -9h-99q-12 0 -21 9t-9 22
v572zM788 105h99q26 0 44 18.5t18 44.5v402q0 26 -18 44.5t-44 18.5h-99q-26 0 -44.5 -18.5t-18.5 -44.5v-402q0 -26 18.5 -44.5t44.5 -18.5v0zM757 570q0 13 9 21.5t22 8.5h99q12 0 21 -8.5t9 -21.5v-402q0 -13 -9 -22t-21 -9h-99q-13 0 -22 9t-9 22v402zM757 570z" />
    <glyph glyph-name="ziyuanguanli1" unicode="&#xe61a;" 
d="M208 345q8 0 13.5 5.5t5.5 13.5v223q0 8 -5.5 13.5t-13 5.5t-13 -5.5t-5.5 -13.5v-223q0 -8 5.5 -13.5t12.5 -5.5v0zM170 150v0q18 -18 44 -18t43 18v0h1v1q18 17 18 43q0 27 -18 45v0v0q-18 18 -44 18t-44 -18v0q-19 -18 -19 -45q0 -25 18 -43l1 -1v0zM196 213v0
q7 7 18 7t18 -7v0q7 -8 7 -19q0 -10 -7 -18v0q-7 -7 -18 -7t-18 7l-1 1q-7 8 -7 17q0 11 8 19v0zM717 221v0q0 -26 18 -44q20 -18 45 -18t44 18q18 18 18 44t-17 43l-1 2q-18 18 -44 18t-45 -18q-18 -19 -18 -45v0zM762 239v0q7 8 18 8q10 0 18 -8h1q6 -7 6 -17.5t-7 -18.5
q-8 -7 -18 -7q-11 0 -18.5 7.5t-7.5 18t8 17.5v0zM792 733v0q-4 13 -15 19.5t-23 2.5l-183 -49q-9 14 -26 14h-449q-12 0 -21.5 -9t-9.5 -21v-647q0 -13 9.5 -22t21.5 -9h449q13 0 22 9t9 22v390l107 -398q3 -12 14 -18.5t24 -3.5l216 58q12 3 18.5 14.5t3.5 23.5l-167 624
v0zM302 74v0h-175v584h175v-584v0zM514 74v0h-175v584h175v-584v0zM734 81v0l-151 565l157 42l151 -565l-157 -42v0zM433 132v0q26 0 44 18q19 18 19 44t-18 44l-1 1q-18 18 -44 18t-44.5 -18t-18.5 -45q0 -26 19 -44q18 -18 44 -18v0zM415 213v0q7 7 18 7t18 -7l1 -1
q6 -7 6 -18q0 -10 -7 -18q-7 -7 -18 -7t-18 7q-8 8 -8 18q0 11 8 19v0zM433 345v0q8 0 13 5.5t5 13.5v223q0 8 -5 13.5t-13 5.5t-13.5 -5.5t-5.5 -13.5v-223q0 -8 5.5 -13.5t13.5 -5.5v0zM675 616v0q-7 -2 -11 -9t-2 -15l58 -215q2 -7 8.5 -11t13.5 -2q8 2 12 8.5t2 14.5
l-58 215q-2 8 -8.5 12t-14.5 2v0z" />
    <glyph glyph-name="jiaoyixingneng" unicode="&#xe74a;" 
d="M936 773h-842q-21 0 -35.5 -14.5t-14.5 -35.5v-643q0 -21 14.5 -35.5t35.5 -14.5h842q21 0 35.5 14.5t14.5 35.5v643q0 21 -14.5 35.5t-35.5 14.5v0zM926 714v-338h-158l-57 82l-72 -82h-130l-21 -74l-92 332l-76 -256l-60 102l-50 -104h-106v338h822zM104 90v246h130
l29 60l69 -118l63 213l94 -338l50 183h118l50 58l40 -58h179v-246h-822z" />
    <glyph glyph-name="jifang" unicode="&#xe647;" 
d="M200 333q34 -12 66.5 2.5t45.5 48.5q23 62 78.5 100t121.5 38t121.5 -38t78.5 -100q10 -26 32.5 -41t48.5 -15q16 0 31 5q33 13 48 45.5t2 66.5q-42 111 -139 180q-100 70 -223 70t-223 -70q-97 -69 -139 -180q-13 -34 2 -66.5t48 -45.5v0v0zM190 430q28 73 85.5 127.5
t131.5 78.5q17 5 33 -3t21.5 -25t-2.5 -33t-26 -22q-55 -18 -98 -58.5t-64 -95.5q-5 -13 -16 -20.5t-24 -7.5q-8 0 -16 3q-16 6 -23.5 22.5t-1.5 33.5v0v0zM549 325q4 -8 4 -17q0 -17 -12 -29t-29 -12t-29 12t-12 29v163q0 6 5.5 7t8.5 -4l64 -149v0v0zM940 896h-856
q-35 0 -59.5 -24.5t-24.5 -59.5v-856q0 -35 24.5 -59.5t59.5 -24.5h856q35 0 59.5 24.5t24.5 59.5v856q0 35 -24.5 59.5t-59.5 24.5v0v0zM436 -34q-20 0 -34 14t-14 34t14 34t34 14t34 -14t14 -34t-14 -34t-34 -14v0v0zM588 -34q-20 0 -34 14t-14 34t14 34t34 14t34 -14
t14 -34t-14 -34t-34 -14v0v0zM938 156h-852v654h852v-654v0v0z" />
    <glyph glyph-name="baobiao4" unicode="&#xe607;" 
d="M978 40h-870q-13 0 -22 8.5t-9 20.5v688q0 12 -9 20t-22 8t-22 -8t-9 -20v-717q0 -24 18 -40.5t44 -16.5h901q13 0 22 8t9 20t-9 20.5t-22 8.5v0zM978 40zM170 269h62q18 0 27 14l66 97l94 -195q7 -13 21 -16q12 -3 23 2.5t15 16.5l127 385l93 -281q2 -10 11 -16.5
t20 -6.5h155q4 0 8 1q17 -29 54 -29q26 0 44 16.5t18 40.5t-18 40.5t-44 16.5q-37 0 -54 -29q-4 1 -8 1h-132l-117 352q-4 11 -15 17t-24 2q-8 -2 -14 -8q-4 -5 -6 -11l-133 -401l-84 174q-2 5 -7 9v0.5v0.5h-1q-15 14 -34 6q-10 -4 -15 -13l-86 -128h-46q-13 0 -22 -8.5
t-9 -20.5t9 -20.5t22 -8.5v0zM170 269z" />
    <glyph glyph-name="jiegou" unicode="&#xe789;" 
d="M979 269h-77v160q0 9 -8 17t-17 8h-339v103h140q15 0 23.5 8.5t8.5 23.5v211q0 14 -8.5 23t-23.5 9h-320q-14 0 -23 -9t-9 -23v-211q0 -15 9 -23.5t23 -8.5h128v-103h-326q-10 0 -18 -8t-8 -17v-167h-89q-15 0 -23.5 -8.5t-8.5 -23.5v-224q0 -14 8.5 -23t23.5 -9h224
q14 0 23 9t9 23v224q0 15 -9 23.5t-23 8.5h-83v148h307v-141h-90q-14 0 -23 -9t-9 -23v-224q0 -15 9 -23.5t23 -8.5h224q15 0 23.5 8.5t8.5 23.5v224q0 14 -8.5 23t-23.5 9h-89v141h313v-141h-102q-15 0 -23.5 -9t-8.5 -23v-224q0 -15 8.5 -23.5t23.5 -8.5h224q14 0 23 8.5
t9 23.5v224q4 9 -6 20.5t-20 11.5zM384 774h269v-166h-269v166zM243 32h-173v179h173v-179zM602 32h-173v179h173v-179zM954 32h-173v179h173v-179z" />
    <glyph glyph-name="jifangguanli" unicode="&#xe775;" 
d="M221 471zM168 471q0 22 15.5 37.5t37.5 15.5t37.5 -15.5t15.5 -37.5t-15.5 -37.5t-37.5 -15.5t-37.5 15.5t-15.5 37.5zM918 118v0l80 34v107l-80 34l-1 1q-5 13 -9 22v1l33 81l-76 76l-80 -33v410q0 15 -12 26t-29 11h-677q-17 0 -29 -11t-12 -26v-934q0 -15 12 -26
t29 -11h552h33h74l34 81h1q13 5 22 9l1 1l82 -33l75 75l-33 82v0q6 12 10 23zM109 814h593v-142h-593v142zM109 600h593v-69h-82l-36 -81v0q-10 -4 -21 -9h-1l-82 32l-75 -75l32 -82v-1l-0.5 -1l-0.5 -1h-249q-11 0 -19.5 -11.5t-8.5 -27.5t8.5 -27t19.5 -11h160v-84l67 -29
h-227q-11 0 -19.5 -11t-8.5 -27t8.5 -27.5t19.5 -11.5h231l-13 -33l59 -59h-355v646zM520 -46l42 16h1q10 -5 21 -9h1l3 -7h-68v0zM868 28l-18 -18l-69 29l-13 -8q-18 -9 -40 -16l-14 -4l-29 -69h-24l-30 69l-14 4q-21 6 -39 16l-13 7l-70 -28l-17 18l27 70l-7 13
q-9 18 -15 38l-4 14l-70 30v25l70 30l4 14q6 21 15 38l7 13l-27 70l17 17l70 -27l13 7q18 9 38 15l14 4l30 70h25l30 -70l14 -4q21 -6 39 -16l13 -7l70 28l17 -17l-28 -70l7 -13q10 -17 16 -39l4 -14l69 -30v-24l-69 -29l-4 -14q-6 -21 -16 -40l-7 -12zM671 340
q-56 0 -95.5 -39.5t-39.5 -95.5t39.5 -96t95.5 -40t96 40t40 96t-40 95.5t-96 39.5zM671.5 141q-26.5 0 -45.5 18.5t-19 45t19 45.5t45.5 19t45 -19t18.5 -45.5t-18.5 -45t-45 -18.5z" />
    <glyph glyph-name="yanxiguanli" unicode="&#xe785;" 
d="M237 760h523v-76h-523v76zM237 625h523v-75h-523v75zM930 112v1l81 34v106l-81 34l-1 1q-4 13 -9 22v1l33 82l-59 58v15v390q0 16 -11 27t-27 11h-715q-16 0 -27 -11t-11 -27v-320h-14h-38q-15 0 -26.5 -11t-11.5 -27v-581q0 -16 11.5 -27t26.5 -11h521h58l1 -5h107
l35 81v0q13 5 23 10v0l82 -33l75 76l-33 81v1q6 11 10 22zM178 818h641v-372h-47l-34 80h-106l-35 -80h-51l-54 22l-21 -22h-83l-35 69q-10 21 -33 21h-142v282zM89 460h52h37h118l35 -68q10 -21 33 -21h61l24 -61v0q-5 -11 -9 -21v-1l-81 -35v-106l81 -35v-1q4 -10 9 -21
v-1l-32 -82l53 -53h-381v506zM572 -46h-24l26 10h1q10 -5 21 -9h1v-1h-25v0zM880 22l-17 -17l-70 28l-13 -7q-18 -10 -39 -16l-15 -4l-29 -70h-24l-30 70l-14 4q-21 6 -39 15l-12 7l-71 -28l-17 18l27 70l-7 13q-9 18 -15 38l-4 14l-70 30v25l70 30l4 14q6 21 15 38l7 13
l-27 70l17 18l71 -28l12 7q18 10 38 15l14 5l30 69h25l31 -69l13 -5q22 -6 39 -15l13 -8l70 29l17 -18l-28 -70l7 -12q10 -18 16 -40l4 -14l70 -29v-25l-70 -29l-4 -14q-6 -20 -16 -39l-7 -13zM683.5 335q-56.5 0 -96 -40t-39.5 -96t39.5 -96t96 -40t96 40t39.5 96t-39.5 96
t-96 40zM683.5 135q-26.5 0 -45.5 19t-19 45.5t19 45t45.5 18.5t45 -18.5t18.5 -45t-18.5 -45.5t-45 -19z" />
    <glyph glyph-name="ziyuan" unicode="&#xe611;" horiz-adv-x="1046" 
d="M181 738q0 22 21 42t43 20h555q22 0 43 -20.5t21 -41.5l41 -256h40l-38 256q0 44 -31.5 75.5t-75.5 31.5h-555q-43 0 -74.5 -31t-31.5 -76l-39 -256h41l40 256v0zM245 570v0q0 4 1 7t3.5 5t4.5 3t6.5 1.5t7 0.5h8.5h10h476q4 0 11.5 0.5t11.5 0.5t8.5 -0.5t6.5 -4t2 -9.5
q0 -28 -40 -28h-478q-41 0 -40 20zM734 672q19 0 28.5 4.5t9.5 18.5t-7 17t-25 3h-6h-423q-18 0 -27 -4.5t-9 -19.5q0 -3 0.5 -5.5t1 -4.5t2 -3.5l2.5 -2.5t3.5 -1.5t4 -1t5 -0.5h5h6.5h6h423v0zM932 418h-819q-44 0 -75.5 -29t-31.5 -73l26 -290q0 -43 30.5 -71t76.5 -28
h766q44 0 75 28t31 71l24 290q-2 43 -31 72.5t-72 29.5v0zM966 26q0 -22 -19.5 -40t-41.5 -18h-766q-22 0 -38 17.5t-16 40.5l-34 290q0 22 20.5 40.5t41.5 18.5h819q22 0 39 -18t17 -41l-22 -290v0zM627 181h-213v-40v0v0h213v40z" />
    <glyph glyph-name="dengji" unicode="&#xe61b;" horiz-adv-x="1354" 
d="M129 744h863q19 0 32 13t13 32t-13 32t-32 13h-863q-18 0 -31 -13t-13 -32t13 -32t31 -13v0zM129 474h714q19 0 32 13t13 32t-13 32t-32 13h-714q-18 0 -31 -13t-13 -32t13 -32t31 -13v0zM695 294h-566q-18 0 -31 -13t-13 -32t13 -32t31 -13h566q18 0 31 13t13 32t-13 32
t-31 13v0zM576 24h-447q-18 0 -31 -13t-13 -32t13 -32t31 -13h447q18 0 31 13t13 32t-13 32t-31 13v0zM1238 736q-27 16 -56.5 8t-45.5 -35l-22 -39l128 -75l22 38q16 27 8.5 57t-34.5 46v0zM827 179l129 -76l271 466l-128 76zM771 -66l170 143l-129 76l-41 -219v0z" />
    <glyph glyph-name="xitongcanshu" unicode="&#xe69b;" 
d="M84 568l415 -226q6 -4 13 -4t13 3l420 227q15 8 14.5 25t-15.5 24l-415 212q-12 6 -25 0l-420 -211q-15 -8 -15 -25t15 -25v0zM516 772l355 -180l-359 -194l-355 194l359 180v0zM940 412l-83 42l-60 -32l70 -36l-360 -194l-354 194l74 37l-60 33l-87 -44
q-15 -8 -15.5 -25t14.5 -25l415 -226q6 -4 13 -4t14 4l419 226q15 8 15 25t-15 25v0zM940 216l-79 38l-60 -32l66 -32l-360 -194l-354 194l69 31l-60 33l-82 -38q-15 -8 -15.5 -25t14.5 -25l415 -226q6 -4 13.5 -4t13.5 4l419 226q15 8 15 25t-15 25v0z" />
    <glyph glyph-name="iconwogzydj" unicode="&#xe697;" 
d="M756 -6h-488q-40 0 -68.5 28.5t-28.5 68.5v488q0 40 28.5 69t68.5 29h73v48h66q16 23 44 36t61 13t61 -13t44 -36h66v-48h73q40 0 68.5 -29t28.5 -69v-488q0 -40 -28.5 -68.5t-68.5 -28.5zM634 677h-54q0 20 -20 34t-48 14t-48 -14t-20 -34h-54v-98h244v98zM805 579
q0 20 -14.5 34.5t-34.5 14.5h-73v-98h-342v98h-73q-20 0 -34.5 -14.5t-14.5 -34.5v-488q0 -20 14.5 -34t34.5 -14h488q20 0 34.5 14t14.5 34v488zM683 140h-342q-10 0 -17 7t-7 17.5t7 17.5t17 7h342q10 0 17 -7t7 -17.5t-7 -17.5t-17 -7zM683 262h-342q-10 0 -17 7t-7 17.5
t7 17.5t17 7h342q10 0 17 -7t7 -17.5t-7 -17.5t-17 -7zM683 384h-342q-10 0 -17 7t-7 17t7 17.5t17 7.5h342q10 0 17 -7.5t7 -17.5t-7 -17t-17 -7z" />
    <glyph glyph-name="jiance" unicode="&#xe7d9;" horiz-adv-x="1025" 
d="M601 398l-99 253l-107 -202l-60 61l-102 -63l29 -16l65 40l79 -81l90 171l101 -258l86 180l35 -74l38 6l-73 155l-82 -172v0zM601 398zM952 199q-27 40 -66 59q11 -18 11 -37q0 -31 -22.5 -52.5t-54.5 -21.5t-54.5 21.5t-22.5 52.5q0 20 11 37q-40 -20 -66 -59
q23 -33 57.5 -53t74.5 -20t74.5 20t57.5 53v0v0v0zM828 263q0 3 -2.5 5.5t-5.5 2.5q-22 0 -37 -15t-15 -35q0 -4 2 -6t5.5 -2t6 2t2.5 6q0 14 11 24q10 10 25 10q3 0 5.5 2t2.5 6v0v0zM974 199q0 -5 -4 -11q-24 -38 -64.5 -60.5t-85.5 -22.5t-86 22.5t-64 60.5q-4 6 -4 11.5
t4 11.5q24 38 64 60q41 23 86 23t85.5 -23t64.5 -60q4 -6 4 -12v0v0zM974 199zM992 203q2 -20 -18 -42.5t-44 -37.5h48q28 0 37 8.5t9 25.5v46h-32v0zM992 203zM154 228v483h700v-395q27 -6 47 -17v427q0 15 -10 25.5t-23 10.5h-728q-14 0 -23.5 -10.5t-9.5 -25.5v-525h-107
v-43q0 -15 9.5 -25.5t23.5 -10.5h107h563zM439 178v23h134v-23h-134v0zM703 122q-91 68 -45 105l-504 1z" />
    <glyph glyph-name="yunxingjiance" unicode="&#xe7de;" 
d="M64 410l90 76l-45 7q44 133 153 217t250 84q146 0 258 -88.5t152 -225.5h57q-38 159 -169 262t-298 103q-163 0 -289.5 -95t-164.5 -244l-52 6zM1018 250l-71 96l-83 -84l45 -6q-39 -133 -150.5 -220t-252.5 -87q-143 0 -254 85.5t-150 221.5h-51q39 -157 167.5 -261
t293.5 -104q166 0 294 101.5t167 257.5h45zM511.5 166q-82.5 0 -141.5 59t-59 141t59 141t141.5 59t141 -59t58.5 -141t-58.5 -141t-141 -59zM511 538q-71 0 -121.5 -50.5t-50.5 -121.5t50.5 -121.5t121.5 -50.5t122 50.5t51 121.5t-51 121.5t-122 50.5zM378 352q-6 0 -10 4
t-4 10q0 61 43 104.5t104 43.5q6 0 10 -4.5t4 -10t-4 -9.5t-10 -4q-50 0 -85.5 -35.5t-35.5 -85.5q0 -5 -3.5 -9t-8.5 -4zM730 151q-4 0 -9 3l-87 70q-10 7 -3 18q8 10 19 3l88 -70q9 -8 2 -19q-5 -5 -10 -5z" />
    <glyph glyph-name="guanlipingzheng" unicode="&#xe61c;" 
d="M905 725h-786q-14 0 -24 -10t-10 -24v-614q0 -14 10 -24t24 -10h786q14 0 24 10t10 24v614q0 14 -10 24t-24 10zM887 94h-750v580h750v-580zM401 538h-171q-10 0 -17.5 7.5t-7.5 17.5v0q0 11 7.5 18.5t17.5 7.5h171q11 0 18.5 -7.5t7.5 -18.5v0q0 -10 -7.5 -17.5
t-18.5 -7.5zM401 418h-171q-10 0 -17.5 7.5t-7.5 18.5v0q0 10 7.5 17.5t17.5 7.5h171q11 0 18.5 -7.5t7.5 -17.5v0q0 -11 -7.5 -18.5t-18.5 -7.5zM401 299h-171q-10 0 -17.5 7.5t-7.5 17.5v0q0 11 7.5 18.5t17.5 7.5h171q11 0 18.5 -7.5t7.5 -18.5v0q0 -10 -7.5 -17.5
t-18.5 -7.5zM401 179h-171q-10 0 -17.5 7.5t-7.5 18.5v0q0 10 7.5 17.5t17.5 7.5h171q11 0 18.5 -7.5t7.5 -17.5v0q0 -11 -7.5 -18.5t-18.5 -7.5zM785 179h-222q-10 0 -17.5 7.5t-7.5 18.5v0q0 10 7.5 17.5t17.5 7.5h222q11 0 18.5 -7.5t7.5 -17.5v0q0 -11 -7.5 -18.5
t-18.5 -7.5zM785 486h-19q-2 19 -15 37l14 13q5 5 5 12t-5 12t-12.5 5t-11.5 -5l-14 -13q-16 11 -36 15v18q0 7 -5 12t-12 5t-12 -5t-5 -12v-18q-20 -4 -36 -15l-13 13q-5 5 -12 5t-12 -5t-5 -12t5 -12l13 -12q-9 -13 -16 -38h-16q-7 0 -12 -5t-5 -12t5 -12t12 -5h17
q3 -18 15 -34l-13 -14q-5 -5 -5 -12.5t5 -12.5t12 -5t12 5l13 13q17 -11 36 -15v-19q0 -7 5 -12t12 -5t12 5t5 12v19q20 4 36 15l14 -13q4 -5 11.5 -5t12.5 5t5 12t-5 12l-14 13q13 18 15 36h19q7 0 12 5t5 12t-5 12t-12 5zM674.5 412q-23.5 0 -40.5 17t-17 40.5t17 40
t40.5 16.5t40 -16.5t16.5 -40t-16.5 -40.5t-40 -17z" />
    <glyph glyph-name="ceshi" unicode="&#xe658;" 
d="M603 409q14 -52 -24 -90q-27 -27 -65.5 -27t-66 27t-27.5 65.5t27 66.5q20 19 46.5 24.5t50.5 -3.5l338 307q13 12 27.5 17t19.5 0q6 -7 1 -20.5t-18 -26.5zM512 720q-139 0 -237.5 -98.5t-98.5 -237.5t98.5 -237.5t237.5 -98.5t237.5 98.5t98.5 237.5q0 63 -24 125
l81 90q55 -100 55 -215q0 -122 -60 -225t-163 -163t-225 -60t-225 60t-163 163t-60 225t60 225t163 163t225 60q118 0 220 -58l-88 -81q-63 27 -132 27z" />
    <glyph glyph-name="fabu1" unicode="&#xe763;" 
d="M947 786v0v2l-1 1v2v0v0v3h-1v1l-0.5 1l-0.5 1q0 1 -1 2v0.5v0.5q0 1 -1 2v0l-2 2v0.5v0.5l-2 2v0l-2 2v0v0q-1 1 -2 1v1h-1v0q-1 1 -2 1v0v0q-2 1 -3 1l-0.5 0.5t-1.5 1l-1 0.5h-2h-1v0q-1 1 -2 1h-1h-2v0h-3v0h-1q-1 0 -2 -1v0v0h-3v0v0q-1 -1 -2 -1t-1 -0.5t-0.5 -0.5
h-1.5v0v0v0l-809 -423q-17 -8 -17 -27t17 -27l217 -110q11 -5 23 -1t17.5 15t1.5 23t-15 17l-165 83l624 326l-385 -460q-7 -9 -7 -20v-230q0 -12 9 -21t21.5 -9t21.5 9t9 21v219l405 486l-92 -624l-218 108q-11 6 -23 2t-17.5 -15.5t-1.5 -23t15 -17.5l255 -126q6 -3 13 -3
q8 0 14 3q14 7 16 22l114 771v0.5v0.5l1 1v3v0z" />
    <glyph glyph-name="pingzheng" unicode="&#xe62d;" 
d="M881 343q17 0 29 12t12 29v307q0 42 -30.5 72.5t-72.5 30.5h-614q-42 0 -72.5 -30.5t-30.5 -72.5v-614q0 -42 30.5 -72.5t72.5 -30.5h614q42 0 72.5 30.5t30.5 72.5v184q0 17 -12 29t-29 12t-29 -12t-12 -29v-153q0 -22 -15 -37t-37 -15h-552q-22 0 -37 15t-15 37v552
q0 22 15 37t37 15h552q22 0 37 -15t15 -37v-276q0 -17 12 -29t29 -12zM686 169h-348q-13 0 -22 9t-9 22v0q0 12 9 21t22 9h348q13 0 22 -9t9 -21v0q0 -13 -9 -22t-22 -9zM717 596q0 18 -13 31t-32 13h-320q-19 0 -32 -13t-13 -31v-219q0 -18 13 -31t32 -13h320q19 0 32 13
t13 31v219zM666 394q0 -10 -11 -10h-286q-11 0 -11 10v185q0 10 11 10h286q11 0 11 -10v-185z" />
    <glyph glyph-name="haocailingyong" unicode="&#xe652;" 
d="M880 395q-3 117 -50.5 196.5t-114.5 79.5q-25 0 -49 -13q-24 14 -51 14q-28 0 -54 -15q-25 14 -52 14q-26 0 -51 -14q-24 14 -50 14q-27 0 -52 -14q-25 14 -51 14q-66 0 -113 -76v234q0 10 -7.5 17.5t-18 7.5t-18 -7.5t-7.5 -17.5v-409q-2 -19 -2 -37q0 -121 48 -204.5
t118 -83.5q26 0 51 14q25 -14 52 -14q26 0 50 13v0q25 -13 51 -13q28 0 54 15q25 -14 52 -14q25 0 49 12v0q24 -13 51 -13q66 0 114 78v-214q0 -11 7.5 -18.5t18 -7.5t18 7.5t7.5 18.5v243v189v4zM305 146q-43 0 -78.5 68.5t-35.5 168.5v3.5v3.5q1 4 1 7v19q6 88 40 146
t73 58q2 0 7 -1q-32 -40 -50.5 -101.5t-18.5 -134.5t18.5 -135t50.5 -101q-5 -1 -7 -1zM408 146q-43 0 -78.5 68.5t-35.5 168.5q0 68 17.5 123t44.5 85l4 4l4 4q3 3 6 5q2 2 4 3q4 3 7 5q2 1 3 1q5 3 10 4h0.5h0.5q3 1 5 2q5 1 8 1l5 -1q-32 -40 -50.5 -101.5t-18.5 -134.5
t18.5 -135t50.5 -101zM520 147q-6 -1 -11 -1q-43 0 -78.5 68.5t-35.5 168.5q0 68 18 123.5t45 85.5l1 1l1 1l7 7l1 0.5t1 1.5q3 2 7 5q3 2 4.5 2.5t4.5 2.5q4 2 7 3v0q6 2 11 3l6 1q4 0 9 -2q-31 -39 -49.5 -100.5t-18.5 -133.5q0 -73 19 -135t51 -102v0zM615 147
q-43 0 -78.5 68.5t-35.5 168.5q0 67 17 121t44 85q7 9 15 15q3 3 6 4q1 2 4 3q4 2 7 4l3 1q4 2 7 2v0q6 2 11 2q2 0 5 -1q-33 -39 -51.5 -101.5t-18.5 -135.5t18 -134.5t50 -101.5h-1h-2zM715 146h-4h-1h-1l1 1l1 1q-24 2 -46 25h-0.5h-0.5q-28 30 -45.5 85.5t-17.5 124.5
q0 100 35.5 168.5t78 68.5t78.5 -68.5t36 -168.5t-36 -168.5t-78 -68.5z" />
    <glyph glyph-name="jiancexinxi" unicode="&#xe60a;" 
d="M512 867q-98 0 -187.5 -38.5t-154 -103t-103 -154t-38.5 -187.5t38.5 -187.5t103 -154t154 -103t187.5 -38.5t187.5 38.5t154 103t103 154t38.5 187.5t-38.5 187.5t-103 154t-154 103t-187.5 38.5zM542 -21l-31 93l-31 -93q-148 12 -253 116l54 76l-83 -43
q-86 104 -91 240l104 18l-103 33q12 136 102 236l71 -58l-42 87q115 106 272 106v0q110 0 203 -54.5t147.5 -148t54.5 -203.5q0 -105 -49.5 -195t-135.5 -146t-189 -64v0zM806.5 564q-33.5 52 -78 88t-84.5 50t-75 20.5t-56 4.5l-21 -1v-354l241 -270l13 13t29.5 34
t38.5 54.5t32 71t18 85.5t-10.5 97.5t-47 106.5z" />
    <glyph glyph-name="ip" unicode="&#xe60b;" 
d="M838 661q-41 66 -104.5 111t-138.5 62q-40 9 -84 9l1 -7v7v-1v1v0q-79 -1 -151.5 -32t-126.5 -88t-81.5 -132t-22.5 -154q5 -86 47 -162q39 -71 109 -123q64 -49 145 -64l49 -187q12 -18 32.5 -18t31.5 18l135 214q71 34 124 96.5t76 139.5t12 159t-53 151zM756 271
q-49 -62 -120 -96l25 12q-24 -14 -58 -26q57 29 58 21q1 -3 -11 -22l46 52v0q-56 -41 -124 -57l31 8q-23 -7 -53 -12q72 21 72 16q1 -1 -2 -6l-108 -172l-107 172q-8 12 -16 16q-63 28 -110 78l14 -15q-20 20 -41 49l71 -73q-57 45 -90 108l13 -25q-14 23 -28 58l16 -34
q-10 20 -17 44l50 -94v0l-3 3q-47 63 -60 142l22 -74q-14 34 -20 73v1q-2 20 -2 42t2 43q8 53 32 101l-11 -25v1l2 3q29 64 79 111q6 5 0 0q18 16 36 28l-77 -74q3 3 3 4q47 57 112 90h-1q19 9 36 15l-91 -50q64 47 143 61q-35 -11 -52 -16t-19 -5.5t-1 0.5q35 13 74 19
q20 3 42 3l-1 5v-5q21 -1 41 -3q55 -8 103 -32l32 -19q9 -6 17 -12l-70 40q74 -33 124 -95l-59 57q3 -2 4 -3q57 -47 90 -112v0q7 -15 13 -28l-51 87l1 -1l2 -2q44 -59 59 -132q-1 5 0 0q1 -10 3 -19l-24 85q1 -3 2 -5q13 -35 19 -74q3 -19 3 -41t-3 -43q-9 -56 -34 -105
l-18 -30q-7 -11 -14 -20l44 76q-30 -67 -84 -115q-34 -30 1 0q-19 -17 -39 -30q40 38 59 56t21.5 20.5t1.5 1.5v0zM512 835v0v6v-6zM402 576h68v-265h-68v265zM607 576h-93v-265h67v88h21q45 -1 75 24q31 25 31 67q0 36 -22.5 61t-78.5 25zM581 521h17q39 0 39 -33
q0 -34 -40 -34h-16v67z" />
    <glyph glyph-name="ITjiankong" unicode="&#xe65f;" 
d="M355 -4h-194v-58h699v58h-505zM899 831h-777q-24 0 -41.5 -17t-17.5 -41v-544q0 -24 17.5 -41t41.5 -17h777q24 0 41 17t17 41v544q0 24 -17 41t-41 17zM906 244v0q0 -8 -5.5 -14t-14.5 -6h-752q-8 0 -14 6t-6 14v515q0 8 6 14t14 6h752q9 0 14.5 -6t5.5 -14v-515z
M680 45v55h-329v-55h329zM634 705h-55v-395h55v395zM809 640h-55v-332h55v332zM452 579h-55v-268h55v268zM279 514h-55v-204h55v204z" />
    <glyph glyph-name="guanli1" unicode="&#xe680;" 
d="M467 406h21v205q0 84 -58.5 144t-142 60t-142.5 -60t-59 -144.5t59 -144.5t142 -60h180zM129 610.5q0 66.5 46.5 114t112 47.5t112 -47.5t46.5 -113.5v-184l21 22h-180q-65 0 -111.5 47.5t-46.5 114zM467 319l-21 22v-183q0 -67 -46.5 -114.5t-112 -47.5t-112 47.5
t-46.5 114.5t46.5 114t111.5 47h180zM86 158q0 -85 59 -145t142.5 -60t142 60t58.5 145v205h-201q-83 0 -142 -60t-59 -145v0zM573 341l-21 -22h180q65 0 111.5 -47t46.5 -114t-46.5 -114.5t-112 -47.5t-112 47.5t-46.5 114.5v183zM731.5 -47q83.5 0 142.5 60t59 145
t-59 145t-142 60h-201v-205q0 -85 58.5 -145t142 -60zM552 449l21 -22v184q0 66 46.5 113.5t112 47.5t112 -47.5t46.5 -114t-46.5 -114t-111.5 -47.5h-180zM933 610.5q0 84.5 -59 144.5t-142.5 60t-142 -60t-58.5 -144v-205h201q83 0 142 60t59 144.5z" />
    <glyph glyph-name="baobiaoguanli" unicode="&#xe603;" 
d="M944 65h-806q-12 0 -20.5 8t-8.5 19v638q0 11 -8.5 18.5t-20.5 7.5t-20 -7.5t-8 -18.5v-665q0 -22 16.5 -37.5t40.5 -15.5h835q12 0 20.5 7.5t8.5 19t-8.5 19t-20.5 7.5zM195 278h57q17 -1 26 12l61 90l88 -181q5 -11 19 -15q12 -2 22 3t14 15l118 357l86 -260
q2 -9 10 -15t18 -6h144q3 0 7 1q17 -28 50 -28q24 0 41 15.5t17 37.5t-17 37.5t-41 15.5q-33 0 -50 -27q-5 1 -7 1h-122l-108 326q-4 11 -14.5 16t-21.5 2q-8 -3 -13 -8t-7 -10l-122 -372l-78 161q-3 6 -6 9q-1 0 -1 1v0q-15 13 -32 5q-10 -4 -14 -12l-80 -119h-42
q-12 0 -20.5 -7.5t-8.5 -18.5q-1 -11 7 -18.5t20 -7.5z" />
    <glyph glyph-name="weibiaoti-3-01-copy" unicode="&#xe66a;" 
d="M199 157h507v64h-507v-64zM706 411h-507v-64h507v64zM900 896l-46 -45l51 -51l46 46zM654 634l-11 -40l41 10l10 -10l19 18h1v1l158 154l-52 51l-158 -155v0l-1 -1l-18 -18zM833 30q0 -39 -28 -67t-67 -28h-507q-39 0 -67 28t-28 67v634q0 40 28 67.5t67 27.5h416v64
h-479q-40 0 -67.5 -28t-27.5 -67v-761q0 -39 27.5 -67t67.5 -28h633q40 0 67.5 28t27.5 67v627h-63v-564zM199 601v-64h285v64h-285z" />
    <glyph glyph-name="peixun1" unicode="&#xe628;" 
d="M285 541q11 -36 34 -49t46 0t35 49q15 9 18 26q3 24 -10 24q-1 28 -17 45.5t-46 17.5q-31 0 -47.5 -16.5t-17.5 -46.5q-14 0 -10 -24q-1 -7 3.5 -14.5t11.5 -11.5v0zM439 123v26q21 0 35.5 15t14.5 36v1l197 197q3 3 3 9.5t-3.5 10t-9.5 3.5t-10 -4l-177 -178v167
q0 27 -17.5 48.5t-45.5 27.5l-28 5l-57 -112l-56 112l-28 -5q-28 -6 -45.5 -27t-17.5 -49v-208q0 -21 14.5 -35.5t35.5 -14.5v-26h195v1v0zM35 299q0 -58 41 -99t98 -41h2q-12 20 -12 41v19q-29 4 -49 26.5t-20 53.5v381q0 34 23.5 58t57.5 24h671q33 0 57 -24t24 -58v-381
q0 -33 -24 -57t-57 -24h-299l-30 -30q-1 -13 -11 -29h338q58 0 99 41t41 99v381q0 59 -41.5 99.5t-98.5 40.5h-671q-57 0 -98 -41t-41 -99v-381v0zM231 75h-104q-38 0 -65 -27t-27 -66v-34h289v34q0 38 -27.5 65.5t-65.5 27.5v0zM564 75h-104q-38 0 -65.5 -27t-27.5 -66v-34
h290v34q0 38 -27.5 65.5t-65.5 27.5v0zM897 75h-104q-38 0 -65.5 -27t-27.5 -66v-34h289v34q-1 38 -28 65.5t-64 27.5v0z" />
    <glyph glyph-name="dengji1" unicode="&#xe620;" 
d="M681 528h-336q-19 0 -33.5 14t-14.5 34v124q0 20 14.5 34t33.5 14h57q6 41 37.5 69t73.5 28t73.5 -28t37.5 -69h57q20 0 34 -14t14 -34v-125q0 -19 -14 -33t-34 -14zM345 702q-1 0 -1 -2v-125q0 -1 1 -1h336q2 0 2 1v125q0 2 -2 2h-104l2 25v3v3q0 27 -19.5 46.5
t-46.5 19.5t-46.5 -19.5t-19.5 -46.5v-6l3 -25h-105zM318 123h235v-46h-235v46zM318 270h389v-46h-389v46zM318 416h389v-46h-389v46zM810 -77h-596q-24 0 -41 17t-17 41v622q0 24 17 41t41 17h82v39q0 20 14 34t34 14h57q6 41 37.5 69t74 28t74 -28t37.5 -69h57
q20 0 34 -14t14 -34v-40h81q24 0 41 -17t17 -40v-622q0 -24 -17 -41t-41 -17zM214 614q-5 0 -8.5 -3t-3.5 -8v-622q0 -5 3.5 -8t8.5 -3h596q5 0 8.5 3t3.5 8v622q0 5 -3.5 8t-8.5 3h-128v86q0 1 -1 1h-105l2 26q0 1 0.5 2.5t0.5 2.5q0 27 -19.5 46.5t-47 19.5t-47 -19.5
t-19.5 -46.5q0 -3 1 -5l2 -26h-106q-1 0 -1 -1v-86h-128v0zM689 155l19 -39l43 -6l-31 -31l8 -42l-39 20l-38 -20l7 42l-31 31l43 6zM689 185q-39 0 -66.5 -27.5t-27.5 -67t27.5 -67t66.5 -27.5t66.5 27.5t27.5 67t-27.5 67t-66.5 27.5zM689.5 8q-34.5 0 -59 24t-24.5 59
q0 34 24.5 58.5t58.5 24.5q35 0 59 -24.5t24 -58.5q0 -35 -24 -59t-58.5 -24z" />
    <glyph glyph-name="zidongfaxian" unicode="&#xe62f;" 
d="M671 243l-103 185q-2 5 -7 7l-185 105q-4 3 -9 3q-7 0 -12 -5q-10 -10 -3 -22l104 -186q2 -5 7 -7l185 -105q4 -3 9 -3v0v0q7 0 12 5.5t5 12.5q0 5 -3 10zM512.5 342q-15.5 0 -26.5 11t-11 26t11 26t26.5 11t26.5 -11t11 -26t-11 -26t-26.5 -11zM652 766h1q1 0 2 1
q7 2 11 -6l41 -112q4 -12 -8 -16l-114 -37q-4 -2 -7 1q-3 2 -5 7zM351 2v0q-2 0 -3 -1q-7 -2 -11 6l-40 112q-4 12 8 16l113 37q4 2 7 -1q3 -2 5 -7zM512 669q44 0 87 -14l5 -1l27 55l-7 2q-55 19 -112 19q-59 0 -114 -19q-68 -24 -120 -71q-51 -46 -81 -107.5t-35 -129.5
q-5 -71 18 -138l2 -6h1q7 -19 28 -19q13 0 22 9t9 21q0 8 -4 15q-39 113 14 221q25 52 68 90t98 57q46 16 94 16zM844 493l-2 4q-2 10 -10.5 16.5t-18.5 6.5q-13 0 -22 -9t-9 -21q0 -6 2 -12l2 -5q39 -113 -14 -221q-25 -52 -68 -90t-98 -57q-46 -16 -94 -16q-56 0 -108 21
l-5 2l-27 -54l6 -3q64 -27 134 -27q59 0 114 19q68 24 120.5 71t80.5 107t34.5 130t-17.5 138z" />
    <glyph glyph-name="pingzhengguanli" unicode="&#xe66f;" 
d="M826 690h-628q-8 0 -14 -5.5t-6 -13.5v-477q0 -8 6 -14t14 -6h217v-48l-40 -34q-4 -4 -2 -9t8 -5h262q6 0 8 5t-2 9l-40 34v48h217q8 0 14 6t6 14v477q0 8 -6 13.5t-14 5.5zM801 263h-578v383h578v-383zM401 485q-1 -8 -1 -16q0 -29 14 -54.5t39 -40.5q1 10 6 20
q-39 27 -39 75v9h1.5h1.5q17 0 28.5 12t11.5 28.5t-11.5 28t-28 11.5t-28.5 -11.5t-12 -28.5q0 -21 18 -33zM472 552q20 10 40 10q31 0 56 -19q-7 -10 -7 -22v0q0 -17 11.5 -28.5t28 -11.5t28.5 11.5t12 28t-12 28t-28 11.5q-9 0 -18 -4q-31 26 -71 26q-29 0 -55 -15
q9 -6 15 -15zM548 384q-11 23 -36 23q-17 0 -28.5 -12t-11.5 -28.5t11.5 -28t28.5 -11.5q16 0 27.5 11t12.5 26q31 12 51 39.5t21 62.5q-9 -4 -20 -5q-3 -26 -18 -46.5t-38 -30.5z" />
    <glyph glyph-name="gongdan1" unicode="&#xe621;" 
d="M940 -128h-685q-35 0 -59.5 24.5t-24.5 59.5v684q0 35 24.5 59.5t59.5 24.5h685q35 0 59.5 -24.5t24.5 -59.5v0v-684v0q0 -35 -24.5 -59.5t-59.5 -24.5zM905 647h-614v0q-18 0 -30 -12.5t-12 -30.5v-612q0 -18 12 -30.5t30 -12.5h620v0q15 0 25.5 10.5t10.5 25.5v619
q0 18 -12.5 30.5t-29.5 12.5zM800 70h-420q-18 0 -31 13t-13 31t13 31t31 13h420q18 0 31 -13t13 -31t-13 -31t-31 -13zM707 254h-327q-18 0 -31 13t-13 31t13 31t31 13h327q18 0 31 -13t13 -31t-13 -31t-31 -13zM497 437h-121q-18 0 -31 13t-13 31t13 31t31 13h121
q19 0 31.5 -13t12.5 -31t-12.5 -31t-31.5 -13zM847 755h-74v0q-6 0 -6 6v0v17q0 14 -9.5 23t-22.5 9h-605v0q-18 0 -31 -13t-13 -31v-576q0 -14 9.5 -23.5t23.5 -9.5h16q6 0 6 -6v-74q0 -6 -6 -6h-59v0q-31 0 -53.5 22.5t-22.5 53.5v673v0q0 31 22.5 53.5t53.5 22.5h693
q35 0 59.5 -24.5t24.5 -59.5v-51q0 -6 -6 -6z" />
    <glyph glyph-name="fasong" unicode="&#xe60d;" 
d="M416 -109q-8 0 -15 3q-24 10 -24 36v288q0 19 15 31t34 7l402 -96l84 600l-755 -437l136 -35q16 -4 24 -18t4 -29.5t-18 -24t-29 -4.5l-229 59q-25 7 -29 33t19 39l907 525q22 12 42 -1.5t17 -37.5l-101 -722q-3 -17 -17 -27t-31 -6l-396 95v-149l80 75q12 11 28 10.5
t27 -12t10.5 -28t-12.5 -27.5l-146 -137q-11 -10 -27 -10zM416 179q-14 0 -26 10q-12 11 -13 27t10 29l209 232q10 12 26.5 13t28.5 -9.5t13 -27t-10 -28.5l-208 -233q-12 -13 -30 -13z" />
    <glyph glyph-name="performance" unicode="&#xe622;" 
d="M481 -86h-3q-10 1 -17.5 8.5t-8.5 17.5l-53 690l-85 -430q-3 -19 -24 -23q-19 -3 -30 14l-67 125l-104 -69q-11 -7 -23 -4l-33 9q-11 3 -17 13t-3 22t13.5 18t21.5 3l20 -6l119 79q10 7 23 4q13 -4 19 -15l44 -80l110 558q2 11 10.5 17.5t19.5 5.5q11 0 18.5 -7.5
t8.5 -18.5l58 -748l128 416q6 21 27 21q22 -3 28 -20l76 -221l16 34q8 17 28 17l186 -10q12 0 20 -9t7 -21q0 -11 -9.5 -19.5t-20.5 -7.5l-168 8l-38 -81q-7 -17 -28 -16q-19 1 -26 20l-69 202l-146 -476q-3 -9 -10.5 -14.5t-17.5 -5.5z" />
    <glyph glyph-name="ceshi1" unicode="&#xe623;" 
d="M199 -128q-47 0 -80.5 33.5t-33.5 80.5v682q0 47 33.5 80.5t80.5 33.5q15 0 26 -11t11 -26v-54q-37 -10 -55.5 -25t-18.5 -46v-577q0 -39 27 -66.5t67 -27.5h498q38 0 66 27.5t28 66.5v577q0 32 -19.5 46.5t-57.5 21.5v54q-2 17 8.5 28.5t25.5 11.5q47 0 80.5 -33.5
t33.5 -80.5v-682q0 -47 -33.5 -80.5t-80.5 -33.5h-606zM540 176h228q15 0 26 -11t11 -26t-11 -27t-26 -12h-228q-14 0 -25.5 11t-11.5 26t11.5 27t25.5 12zM540 478h228q15 0 26 -11t11 -26t-11 -26t-26 -11h-228q-14 0 -25.5 11t-11.5 26t11.5 26t25.5 11zM313 705v40
q0 15 11 26t26 11h37q0 47 33.5 80.5t80.5 33.5t80 -33.5t33 -80.5h40q15 0 26 -11t11 -26v-37zM213 472q11 10 26 0l63 -62l136 136q6 7 15 7t13 -7q15 -14 0 -28l-147 -148q-12 -6 -17.5 -6t-11.5 6l-74 74q-18 18 -3 28zM421 68.5q-6 -6.5 -15 -6.5t-13 6l-60 60l-60 -60
q-6 -6 -15 -6t-13 6q-7 7 -7 15.5t7 13.5l59 59l-59 60q-7 7 -7 15.5t7 13.5q14 14 28 0l60 -60l60 60q6 6 15 6t13 -6q14 -15 0 -29l-60 -60l60 -59q6 -5 6 -13.5t-6 -15z" />
    <glyph glyph-name="peixun2" unicode="&#xe6d4;" 
d="M333 205q-112 0 -168 15t-56 56q0 36 46 70t113 47q6 3 8 19q-7 3 -9 10q-7 14 -19 34q-9 16 -13 24.5t-7.5 22.5t-3.5 30q0 53 30.5 86.5t78.5 33.5q47 0 78 -34.5t31 -87.5q0 -34 -13 -66.5t-35 -53.5q-6 -6 -4 -13q2 -6 8 -7q67 -13 113 -46.5t46 -69.5q0 -40 -56 -55
t-168 -15zM299 444q13 -7 15 -25t-8.5 -39t-29.5 -25q-54 -10 -91.5 -35.5t-37.5 -43.5q0 -3 2.5 -6t13.5 -8t29.5 -9t55 -6.5t85.5 -2.5q47 0 83 2.5t55 5.5t30 8t14 8.5t3 6.5q0 18 -37 43t-91 35q-28 7 -37 34q-8 29 14 51q36 35 36 93q0 38 -19.5 60.5t-50.5 22.5
q-32 0 -51.5 -22t-19.5 -59q0 -16 4 -27t16 -31q10 -18 17 -31zM870 563h-256q-8 0 -13.5 5.5t-5.5 13.5t5.5 14t13.5 6h256q8 0 14 -6t6 -14t-6 -13.5t-14 -5.5zM870 461h-256q-8 0 -13.5 5.5t-5.5 13.5t5.5 13.5t13.5 5.5h256q8 0 14 -5.5t6 -13.5t-6 -13.5t-14 -5.5z
M666 0h-308q-8 0 -13.5 5.5t-5.5 13.5t5.5 13.5t13.5 5.5h308q8 0 13.5 -5.5t5.5 -13.5t-5.5 -13.5t-13.5 -5.5zM742 -77q-8 0 -13.5 5.5t-5.5 13.5v154q0 8 5.5 13.5t13.5 5.5t14 -5.5t6 -13.5v-154q0 -8 -6 -13.5t-14 -5.5zM282 -77q-8 0 -14 5.5t-6 13.5v154q0 8 6 13.5
t14 5.5t13.5 -5.5t5.5 -13.5v-154q0 -8 -5.5 -13.5t-13.5 -5.5zM975 0h-156q-8 0 -13.5 5.5t-5.5 13.5t5.5 13.5t13.5 5.5h156q4 0 4 7v717q0 6 -4 6h-921q-3 0 -6 -2t-3 -4v-717q0 -2 3 -4.5t6 -2.5h151q8 0 13.5 -5.5t5.5 -13.5t-5.5 -13.5t-13.5 -5.5h-151
q-19 0 -33.5 13.5t-14.5 31.5v717q0 17 14.5 30.5t33.5 13.5h921q18 0 30.5 -12.5t12.5 -31.5v-717q0 -19 -12.5 -32t-30.5 -13v0z" />
    <glyph glyph-name="guanli3-copy" unicode="&#xe8b0;" 
d="M377 135h-242q-21 0 -36 15t-15 36v47q0 26 21 41q11 8 22 13l171 92l16 24l-16 -20q-41 33 -61.5 90.5t-20.5 104.5v111q0 56 62.5 105t134.5 49q70 0 132 -49t62 -105v-111q0 -12 -2 -29.5t-8.5 -50t-24 -64t-43.5 -52.5q1 -10 -6 -18.5t-17.5 -9.5t-18.5 5.5t-9 16.5
q-3 29 20 46q30 24 44 70.5t14 85.5v111q0 32 -45 67.5t-98 35.5q-54 0 -100 -35.5t-46 -67.5v-111q0 -38 16.5 -85t46.5 -71q22 -17 19 -45.5t-27 -41.5l-173 -93q-8 -4 -14 -9v-47h242q10 0 17.5 -7.5t7.5 -18t-7.5 -18t-17.5 -7.5zM756 -69l6 23q1 1 2 1l19 -12
q17 -12 38.5 -11t35.5 15l20 20q13 13 14 33t-10 38l-13 22v0.5v0.5l24 6q21 5 34.5 19.5t13.5 33.5v28q0 22 -14.5 37t-33.5 18l-23 5q-1 2 -1 3l12 21q12 19 11 38.5t-14 33.5l-20 20q-14 13 -36 14t-37 -10l-20 -12l-3 1l-5 22q-3 19 -18 34t-36 15h-29q-19 0 -33.5 -13
t-19.5 -35l-6 -23q-1 -1 -4 -2l-20 13q-17 11 -38.5 10t-35.5 -14l-20 -20q-13 -14 -14 -33.5t10 -37.5l14 -24v-0.5v-0.5l-22 -5q-20 -3 -34.5 -18t-14.5 -37v-28q0 -19 13 -33.5t34 -19.5l24 -6l-13 -22q-12 -19 -11 -39t14 -33l20 -20q13 -13 35.5 -14.5t37.5 9.5l21 14
q3 -2 5 -2l5 -23q5 -22 20 -35t33 -13h29q21 0 36 14.5t18 33.5zM594 6l-33 -22q-3 -2 -9 -1l-20 19q-1 3 4 10l20 35q7 12 1 24q-5 10 -8 19q-4 13 -18 17l-37 9q-4 1 -8 4h-1v28q1 4 9 6l36 8q14 3 19 17q3 10 8 21q6 12 -1 24l-21 35q-2 4 -3 8v1l22 20q4 0 8 -2l32 -21
q13 -8 26 -1q11 6 23 10q14 4 17 18l9 37l4 8h29q4 0 5 -8l8 -37q3 -14 17 -18q11 -4 22 -10q13 -6 25 1l33 21q3 2 9 2l20 -19q0 -4 -4 -10l-19 -33q-8 -12 -1 -25q5 -11 9 -22q4 -14 19 -17l37 -8q7 -2 7 -6l1 -27q-2 -3 -10 -5l-37 -9q-13 -4 -18 -17q-3 -10 -8 -20
q-7 -13 0 -25l21 -33q2 -4 3 -9v0l-22 -21q-4 0 -8 3l-32 20q-12 8 -25 1q-11 -5 -22 -9q-14 -4 -17 -18l-8 -38q-1 -7 -5 -8h-28q-3 2 -5 10l-9 36q-3 14 -17 18q-11 4 -23 10q-6 3 -12 3q-7 0 -14 -4v0zM798 135.5q0 45.5 -32.5 78t-78.5 32.5t-78.5 -32.5t-32.5 -78
t32.5 -78.5t78.5 -33t78.5 33t32.5 78.5zM748 135q0 -25 -18 -42.5t-43 -17.5t-42.5 17.5t-17.5 42.5t17.5 43t42.5 18t43 -18t18 -43z" />
  </font>
</defs>
</svg>
